<?xml version="1.0" encoding="UTF-8"?>
<svg width="512px" height="256px" viewBox="0 0 512 256" version="1.1" xmlns="http://www.w3.org/2000/svg" xmlns:xlink="http://www.w3.org/1999/xlink">
    <!-- Generator: Sketch 53.2 (72643) - https://sketchapp.com -->
    <title>Artboard</title>
    <desc>Created with Sketch.</desc>
    <defs>
        <polygon id="path-1" points="0.771377957 0.107630498 33.1422839 0.107630498 33.1422839 38 0.771377957 38"></polygon>
        <polygon id="path-3" points="0 0.648542714 453.714258 0.648542714 453.714258 179.199413 0 179.199413"></polygon>
    </defs>
    <g id="Artboard" stroke="none" stroke-width="1" fill="none" fill-rule="evenodd">
        <g id="Group-37-Copy">
            <path d="M277.714881,206.078767 C277.254856,207.213179 276.486903,208.149519 276.604475,208.967916 C277.384559,214.380681 272.861754,214.772324 269.43909,215.910337 C267.871458,216.431626 267.460888,214.555345 267.609253,213.493859 C268.74672,205.379213 264.118472,198.834736 261.41804,191.768971 C261.162366,191.100028 260.581036,190.538224 260.365487,189.862979 C259.702042,187.786825 259.828013,185.365846 261.700773,184.378187 C263.641651,183.354515 265.773817,184.520439 266.945809,186.537171 C267.908783,188.194673 268.90255,189.848573 269.687299,191.586204 C270.491643,193.369752 271.124295,194.16384 273.032514,192.434312 C276.871346,188.954549 278.578945,189.083295 281.929759,192.987113 C283.594435,194.928218 284.493024,194.151236 285.431737,192.495535 C286.711036,190.241116 287.042292,187.587852 289.569166,185.851122 C291.245972,184.697803 292.393703,184.212527 294.118098,185.310025 C295.975929,186.493055 296.40796,188.078531 295.635342,190.002529 C294.64904,192.457721 293.692598,194.930919 292.553265,197.321287 C291.149861,200.266256 289.740859,203.082479 289.778183,206.534332 C289.798712,208.362896 288.787216,210.638923 285.800317,210.186058 C285.45973,210.13474 284.966113,210.231975 284.730035,210.449854 C281.672219,213.264276 280.545017,211.179119 279.569913,208.604184 C279.240523,207.732667 278.997913,206.788224 277.714881,206.078767" id="Fill-1" fill="#422F27"></path>
            <path d="M395.511198,187.131675 C395.41462,187.842213 395.9978,189.465137 395.349616,191.200298 C394.766436,192.758957 398.561749,194.69325 401.172129,194.266022 C405.758635,193.515657 407.74126,190.362135 406.219235,185.774864 C405.558979,183.785356 405.342608,182.17963 406.814487,180.420935 C407.764476,179.285884 408.457234,177.542576 410.131555,178.111007 C411.963743,178.732841 413.551701,180.038964 413.716997,182.307256 C414.380968,191.464601 414.133023,200.478027 410.130626,209.064226 C409.162994,211.138817 408.570527,213.092118 405.727061,211.289071 C405.038017,210.852791 404.632206,211.542511 404.088028,211.709963 C401.743237,212.428647 401.043049,211.461048 401.719092,209.333959 C402.481498,206.934422 403.330266,204.562038 404.127031,202.173363 C404.349902,201.502651 404.914509,200.481648 404.652636,200.188381 C402.362633,197.623202 399.289795,199.652536 396.611625,199.071433 C395.131388,198.750107 394.344838,199.501377 394.254761,201.085379 C394.17397,202.512792 393.796946,203.924817 393.537858,205.341368 C393.167335,207.360744 393.159906,209.921398 391.228355,210.823827 C389.691471,211.541606 387.545406,210.647323 385.539565,211.15692 C383.959964,211.557899 383.814169,209.721361 384.144762,208.529286 C386.366974,200.510613 387.096878,192.294618 387.894571,184.066856 C388.106299,181.880028 388.761912,179.124768 392.110554,179.287694 C395.761928,179.466008 395.957869,182.011274 395.730355,184.735758 C395.689495,185.219105 395.642135,185.702452 395.511198,187.131675" id="Fill-3" fill="#422F27"></path>
            <g id="Group-7" transform="translate(38.000000, 196.000000)">
                <mask id="mask-2" fill="white">
                    <use xlink:href="#path-1"></use>
                </mask>
                <g id="Clip-6"></g>
                <path d="M6.05797297,34.3813805 C6.58910811,31.6203561 7.25991892,28.8899171 7.6182973,26.1177707 C8.4977027,19.3176244 6.29689189,13.294161 2.73516216,7.65996585 C2.34002703,7.0343561 1.98256757,6.38464878 1.59754054,5.75255122 C0.515054054,3.9786 0.329432432,2.09991707 2.06067568,0.808843902 C3.75148649,-0.452570732 5.48824324,0.0757219512 6.91624324,1.6921122 C9.28981081,4.37713659 11.3757568,7.27903902 13.0978108,10.4080146 C13.9275946,11.915039 14.705,12.3163561 15.7011081,10.889039 C17.0785676,8.91489268 18.8704595,6.91850244 19.3418649,4.68577073 C20.2378108,0.437185366 23.0111081,2.54016098 24.7956486,2.84045366 C27.4081351,3.28069756 26.3155405,5.57738049 25.7485676,7.01952683 C24.9013243,9.17440488 23.4825135,11.0540146 22.751973,13.3284537 C22.1317027,15.2599659 22.4404595,16.2331366 24.0219189,17.6548927 C27.557,20.8311366 31.3852162,23.863722 32.7158108,28.9140146 C33.7100811,32.6843561 33.1991622,33.8744049 28.6578649,34.6835268 C26.2475405,35.1126488 25.8441351,32.7724049 25.4352162,31.0494293 C24.5254865,27.2225512 22.0205135,24.6098195 19.1838108,22.2158195 C17.5931622,20.8728439 17.0565135,21.7672341 16.9076486,23.3752829 C16.6448378,26.2021122 16.4858649,29.0428439 16.0870541,31.8492829 C15.6845676,34.6826 14.9485135,37.3629902 11.0945676,36.7392341 C10.6433784,36.6660146 10.047,36.7485024 9.68310811,37.0015268 C5.9522973,39.595722 6.37683784,36.5640634 6.05797297,34.3813805" id="Fill-5" fill="#422F27" mask="url(#mask-2)"></path>
            </g>
            <path d="M210.713732,219.552948 C210.967176,218.742379 211.258029,217.849772 211.524567,216.950923 C213.780314,209.341916 208.744161,203.653664 205.592474,197.594458 C204.256982,195.028101 202.98602,192.220981 200.660131,190.107616 C199.849296,189.371059 199.675345,188.095014 200.767681,187.231834 C202.080728,186.192986 203.274067,184.855413 205.382985,185.823815 C207.659308,186.869798 209.064006,188.624693 210.177852,190.63997 C211.552623,193.126964 212.763732,193.095754 214.420939,190.791562 C215.749885,188.943927 217.473493,187.356674 218.987612,185.626746 C220.125773,184.325734 221.590326,184.010066 223.289619,184.000258 C225.154445,183.989557 226.997761,184.307008 227.765575,185.949547 C228.482888,187.483298 227.432638,188.916284 226.254262,190.095132 C225.306885,191.043917 224.349221,191.992702 223.493496,193.014608 C219.144729,198.205283 217.777439,203.902452 220.565326,210.179237 C222.122466,213.685461 219.947147,216.797548 219.058689,219.801737 C218.298356,222.372552 214.273175,221.154469 211.789234,221.959688 C210.775456,222.288731 210.959695,220.524026 210.713732,219.552948" id="Fill-8" fill="#422F27"></path>
            <path d="M492.130116,201.759948 C491.568894,197.14778 493.797197,192.182855 492.199941,187.18985 C491.279992,184.315143 493.740464,183.098043 495.390961,182.701411 C500.661032,181.433416 505.920629,181.717728 510.653917,184.943437 C511.483967,185.509428 512.224116,186.187739 511.936959,187.183708 C511.675986,188.087538 510.700177,188.179676 509.850925,188.029623 C507.411401,187.6014 505.02861,190.45066 502.48522,188.061213 C501.946692,187.554893 500.64183,188.224429 500.508289,188.993124 C500.252554,190.469088 500.333726,192.020517 500.402678,193.535091 C500.507416,195.80432 502.328986,194.956649 503.56315,195.251491 C504.44295,195.462092 505.295692,195.873642 506.096065,196.315028 C507.071002,196.851183 508.489331,197.21096 508.132348,198.74484 C507.831226,200.04267 506.615392,199.882086 505.55841,199.983877 C504.298062,200.10585 503.067389,200.50687 501.807914,200.656924 C500.825122,200.774509 499.861532,200.819262 499.831856,202.10744 C499.805671,203.286807 500.27001,204.194147 501.584473,204.307345 C504.867139,204.589902 507.310154,206.691527 509.977484,208.267527 C510.670501,208.677322 511.758904,209.202947 511.431598,210.405129 C511.112146,211.580986 510.282097,211.903908 509.05317,211.974986 C503.868636,212.273338 499.07425,209.801406 493.908045,209.945317 C492.502809,209.984804 492.086475,208.75542 492.119642,207.421612 C492.16241,205.658704 492.130116,203.89404 492.130116,201.759948" id="Fill-10" fill="#422F27"></path>
            <path d="M350.914506,186.411272 C348.308362,186.621276 346.255773,186.747651 344.211006,186.96323 C342.548601,187.137924 341.008725,187.659219 339.980693,189.229606 C338.052372,192.17896 338.469494,193.149069 341.760414,193.67408 C345.154745,194.216746 348.19626,195.745318 350.851069,198.020056 C355.681864,202.160675 354.805908,209.457864 349.241673,212.292924 C344.760217,214.576954 339.793857,214.437571 335.040403,212.654391 C332.375166,211.654547 333.179864,210.165932 334.781439,208.705193 C336.617646,207.028875 338.859677,206.882987 341.024367,207.182196 C343.77129,207.562249 345.134758,205.456629 345.650077,203.615838 C346.23231,201.535308 343.868618,200.884851 342.347861,200.029037 C340.920955,199.225259 339.375866,199.561638 337.904641,199.253136 C332.749707,198.172449 330.935226,194.829104 332.5985,189.469345 C333.962837,185.076908 337.253757,182.695309 341.09128,182.163793 C344.450851,181.697323 348.285768,181.975161 350.914506,186.411272" id="Fill-12" fill="#422F27"></path>
            <path d="M431.564454,195.051765 C434.882332,193.10274 437.292214,193.927568 439.633469,194.94989 C440.352299,195.263557 441.132717,195.999022 440.898679,196.898022 C440.72887,197.545016 439.910619,197.935536 439.165394,197.888173 C437.290455,197.770213 435.621398,199.26795 433.663753,198.542316 C432.877176,198.25099 431.790573,196.687123 431.290824,198.660276 C430.916012,200.140141 431.318099,201.401958 433.264306,201.754052 C436.081554,202.264319 439.013182,202.285766 441.471455,204.355433 C442.922312,205.577036 445.802029,206.202583 444.515703,208.478679 C443.53732,210.209657 440.420046,210.369618 438.643649,209.431298 C435.33369,207.684235 432.189141,206.935366 428.561559,208.0122 C425.780384,208.837922 424.707859,206.90677 424.31897,204.601183 C423.448808,199.455614 424.560926,194.403877 425.2516,189.33963 C425.379177,188.404884 425.63785,187.480862 425.686241,186.543436 C425.886845,182.724026 427.020079,182.175332 430.932729,182.029669 C435.063579,181.875963 438.990306,182.305803 442.852805,183.640005 C444.235034,184.118101 446.226992,184.352235 445.978877,186.370963 C445.722844,188.461183 443.989558,187.828487 442.60205,187.566651 C441.491692,187.356646 440.983144,188.963408 439.745209,188.565739 C437.792843,187.939298 435.33281,186.71412 433.886353,188.115345 C432.574511,189.386099 432.505883,191.981224 431.564454,195.051765" id="Fill-14" fill="#422F27"></path>
            <path d="M99.1693946,217.218148 C99.447242,211.211954 98.8986944,205.342163 96.7634683,199.63497 C96.1336213,197.953886 95.0838763,195.285471 97.5952237,194.322528 C100.091383,193.365006 101.913919,194.577265 102.972598,197.457058 C105.050647,203.111859 106.783843,208.791049 106.867823,214.862282 C106.891944,216.640021 107.539659,217.314803 109.321992,217.669809 C112.975105,218.397887 117.055263,217.683359 120.096397,220.74472 C121.028213,221.683272 122.320069,222.356248 121.927867,223.965065 C121.500822,225.717512 119.728316,224.531449 119.179768,224.993047 C116.856035,226.943321 115.122839,225.603693 112.917928,224.779863 C109.497992,223.501661 105.865428,224.288455 102.530365,225.510651 C99.7778,226.519662 99.0219836,225.665119 99.1515266,223.00935 C99.2444402,221.083466 99.1693946,219.148548 99.1693946,217.218148" id="Fill-16" fill="#422F27"></path>
            <path d="M78.7172031,216.70943 C79.6446641,212.247376 76.9594172,207.453361 76.1692541,202.402428 C75.8348825,200.262337 75.8096645,198.971573 77.8840761,198.23084 C80.0565576,197.455675 82.0880052,198.754386 82.5101727,200.318841 C84.5546964,207.886853 87.3361451,215.372756 85.2748095,223.486385 C84.5322804,226.408704 82.298155,225.660908 80.6814029,225.957554 C78.838623,226.294813 78.7405531,224.552016 78.7237411,223.218874 C78.6994572,221.326871 78.7172031,219.434868 78.7172031,216.70943" id="Fill-18" fill="#422F27"></path>
            <path d="M71.454899,137.96141 C69.9394258,137.857688 67.8274367,138.076218 68.0112281,136.418241 C68.1230077,135.416646 68.8119568,133.902772 70.81969,134.004911 C72.6350334,134.097549 73.9538174,134.966918 73.9989592,136.497419 C74.0376521,137.812557 72.9940178,138.121349 71.454899,137.96141" id="Fill-20" fill="#422F27"></path>
            <g id="Group-24">
                <mask id="mask-4" fill="white">
                    <use xlink:href="#path-3"></use>
                </mask>
                <g id="Clip-23"></g>
                <path d="M400.603504,135.693678 C400.097644,136.304231 398.110598,136.806241 397.352719,135.802221 C395.702306,133.61599 398.158819,132.042121 398.872117,130.051266 C398.70562,132.252874 402.568715,133.323829 400.603504,135.693678 M82.4013639,138.763628 C81.0557407,138.743729 81.1285263,137.768653 81.1385343,136.971769 C81.1530914,135.898101 81.2058609,134.623628 82.6597527,134.561216 C83.8343299,134.511467 84.2537567,135.428653 84.2037166,136.523126 C84.1473078,137.73609 83.601416,138.55197 82.4013639,138.763628 M453.524983,133.063327 C453.566835,130.996492 452.198466,129.804332 450.214149,130.244834 C444.246642,131.56996 438.190883,131.387246 432.164238,131.838603 C424.170562,132.436492 416.2615,134.124332 408.305127,135.272171 C406.917653,135.47207 405.665741,135.161819 405.275428,133.398905 C404.940614,131.88202 404.243693,130.445638 403.876125,128.934181 C403.100049,125.737598 399.926598,123.323427 397.948651,125.314281 C394.251143,129.036392 390.389869,126.620412 386.776065,127.470663 C383.628999,128.210563 380.251749,126.28393 377.347604,128.573276 C377.11924,128.753276 376.272198,128.242221 375.759059,127.966342 C372.608354,126.272171 369.799741,126.910764 368.303087,130.135387 C367.096667,132.733176 365.680987,133.377196 362.860546,132.662623 C358.892823,131.656794 356.006875,133.112171 354.118089,136.658804 C353.115468,138.54202 351.74164,139.177899 349.718202,139.146241 C342.389604,139.029558 335.054638,138.817899 327.7315,139.011467 C325.218578,139.077497 324.349701,137.900714 324.021256,136.04192 C323.311596,132.024935 321.919572,128.078503 322.33263,123.918603 C322.949488,117.704533 321.400065,112.015085 318.585993,106.503829 C313.423677,96.3939799 312.541152,85.0250352 309.31857,74.3344824 C306.378033,64.5783015 304.583869,54.4675477 301.388582,44.8054372 C297.456342,32.9127739 290.392502,22.9259397 280.795725,14.5835276 C268.534085,3.92553769 254.345448,-0.351949749 238.388121,0.842924623 C228.302771,1.59820101 218.553143,3.91106533 209.350318,8.35227136 C199.976446,12.8766935 189.928398,16.3174975 182.728995,24.3044322 C177.930606,29.6293568 174.341368,35.8045327 171.075115,42.1859397 C165.980125,52.1411156 161.672129,62.3703618 158.112915,72.9894573 C155.267909,81.4793065 154.510939,90.3816181 151.894298,98.8949849 C150.843456,102.313176 150.01734,105.989156 150.552314,110.21599 C152.670374,108.493779 153.978695,106.542724 156.089476,105.613779 C157.9355,104.800613 158.475023,103.290965 159.010907,101.39599 C160.362899,96.6155879 160.333785,91.6226231 161.577508,86.8657387 C165.518847,71.7936784 171.50546,57.5049347 178.809492,43.7616181 C183.505071,34.9271457 190.061232,27.8872462 198.970186,22.9476482 C210.573115,16.5164925 222.483564,10.9265427 235.888847,9.81940704 C246.764831,8.92121608 257.458851,9.66473367 267.087472,15.8905628 C270.892338,18.3508643 273.90748,21.5637286 277.267444,24.4545829 C282.691789,29.1219196 286.998875,34.4079497 289.706498,40.8951859 C294.005396,51.1995075 295.878715,62.2473467 299.190458,72.8655377 C302.870679,84.6677487 304.104394,97.1890553 308.996494,108.607749 C311.585841,114.650864 312.976955,120.63609 312.467456,127.084432 C312.235452,130.028653 312.90235,132.844432 313.565608,135.598704 C314.200663,138.235387 313.194402,139.340714 310.971713,138.883025 C306.464466,137.956794 302.072767,139.328955 297.604642,139.047648 C292.494186,138.725638 287.362803,138.836894 282.226871,139.14805 C278.998831,139.344332 275.611572,139.176995 272.485432,138.408151 C263.51643,136.200211 254.381841,136.638905 245.300931,136.28795 C243.772434,136.229156 242.497777,137.502724 242.031949,139.269256 C241.251324,142.22795 241.06663,145.212874 241.205833,148.249357 C241.483328,154.286141 241.687127,160.248754 239.978486,166.243025 C239.114158,169.27408 238.19342,171.452171 234.929897,171.71991 C232.4934,171.918905 229.700254,168.269156 229.237156,165.218201 C228.042562,157.34795 229.003332,149.313075 227.167316,141.473578 C226.528622,138.745538 225.428651,137.417698 222.633685,137.409558 C220.450117,137.403226 218.27019,137.146342 216.10027,136.972673 C212.002442,136.644332 207.840017,135.109357 203.818614,136.121518 C199.077544,137.314583 194.393793,136.505035 189.697304,136.773678 C188.236133,136.856894 186.774053,136.929256 185.311973,137.004332 C176.806979,137.436693 168.301985,137.883528 159.795172,138.288754 C157.471492,138.40001 156.613532,137.228653 156.655384,134.911266 C156.762743,128.839206 156.655384,122.763528 156.695416,116.689658 C156.710883,114.388553 155.991216,112.038603 157.112113,109.726643 C152.395608,112.759508 149.150282,116.495186 149.46053,122.493075 C149.666149,126.49197 149.342254,130.518 149.555152,134.51599 C149.689805,137.065839 148.731765,137.914281 146.287079,138.095186 C139.690887,138.584533 133.094695,138.282422 126.499412,138.315889 C124.426843,138.326744 121.66463,139.399508 121.533616,135.528151 C121.510871,134.851568 120.038783,134.09991 118.889681,133.855688 C116.383127,133.322925 113.884763,132.822724 111.300875,133.052472 C108.387632,133.31207 105.694566,133.308452 104.727428,129.643327 C104.526358,128.882623 103.40364,127.982623 102.576614,127.828854 C98.3950834,127.048251 94.1853479,126.27398 89.9519571,125.986342 C88.6236204,125.895889 87.2716285,126.518201 85.7713359,125.939307 C84.0990874,125.294382 82.2239491,125.759307 80.9219972,126.847447 C79.3143459,128.191568 78.3126345,127.698603 76.8041535,126.704533 C71.9557246,123.50795 67.8588068,125.043829 66.1101335,130.518905 C65.5669711,132.217598 65.0611114,133.929859 64.4751876,135.614985 C63.9092798,137.238603 62.8684461,138.15398 60.9778409,138.188352 C49.1492758,138.406342 37.318891,138.287849 25.5658409,136.935588 C19.1852758,136.201116 12.9093399,134.592874 6.55697916,133.55991 C2.44277475,132.890563 0.300149499,134.434583 0.0244741483,137.84192 C-0.23118517,141.009558 1.50748016,142.752573 5.18224168,143.094482 C6.98004529,143.261819 8.87156032,143.232874 10.5447186,143.803628 C21.2851395,147.469658 32.556895,146.109256 43.5529752,147.289658 C49.8352798,147.963528 56.2476886,147.508553 62.6000493,147.434382 C64.2768469,147.415387 65.5114721,148.021417 66.9726425,148.733276 C69.5865543,150.007749 72.6126144,152.351367 75.1655683,148.416693 C75.8524822,147.358402 76.3610713,147.726543 77.1307788,148.474583 C80.4825543,151.732673 85.3200653,148.079307 88.8301495,150.849859 C88.8810994,150.890563 89.1886184,150.547749 89.4060653,150.449156 C91.8835042,149.333879 94.290887,147.467849 96.7728749,150.662623 C97.7600293,151.932573 98.9846465,150.591166 100.023661,150.138905 C103.134334,148.784834 106.013913,147.317698 109.735985,147.369256 C127.894166,147.619809 146.057805,147.491367 164.219624,147.490462 C165.073035,147.490462 165.934634,147.492271 166.777127,147.379206 C176.697801,146.044131 186.713095,145.945538 196.645596,146.31006 C202.165472,146.512673 207.447885,146.114683 212.82037,145.290663 C215.03942,144.949658 218.4194,144.285739 218.912522,146.905236 C219.573961,150.417497 220.398258,153.970462 219.78049,157.898804 C218.943456,163.221015 219.159083,169.111266 223.169568,173.509055 C226.760626,177.448251 232.120374,177.786543 237.027031,178.924432 C240.889216,179.81991 244.219156,178.460412 246.535556,175.832774 C251.282085,170.447246 253.250935,164.132774 250.784414,156.991568 C250.487813,156.133176 250.498731,155.258503 250.961829,154.526744 C252.009031,152.870563 251.887115,151.102221 251.860731,149.258804 C251.775208,143.336894 253.244566,143.61006 257.399713,146.044131 C258.104823,146.458402 258.97461,146.586844 259.755236,146.883528 C264.952125,148.858101 270.27457,147.195588 275.519681,147.475085 C283.420554,147.896593 291.314149,147.462422 299.235039,148.055789 C313.228975,149.104131 327.249296,147.453377 341.266887,147.398201 C348.11328,147.371065 354.969681,147.600814 361.788779,146.750563 C364.822117,146.372472 367.520642,146.429457 369.233833,149.707447 C370.166398,151.492975 371.657592,151.372673 372.902226,149.582623 C373.452667,148.790261 373.914855,147.872171 375.481564,148.744131 C379.3856,150.920412 381.222526,150.250161 383.456133,146.023327 C385.772534,149.568151 388.249063,149.304935 390.819304,146.877196 C392.038462,145.724834 393.054731,145.848754 394.307552,146.905236 C397.611107,149.69207 400.151324,149.619709 403.204679,146.338101 C404.524827,144.918 405.835877,144.560714 407.63641,144.465739 C410.393164,144.319206 413.128991,143.795487 415.874827,143.438201 C422.928659,142.518302 429.887869,140.523829 437.0436,140.85398 C441.854727,141.075588 446.458414,140.306744 451.063921,139.324432 C454.80055,138.527548 453.476763,135.400613 453.524983,133.063327" id="Fill-22" fill="#422F27" mask="url(#mask-4)"></path>
            </g>
            <path d="M140.093575,202.762772 C139.979592,202.750059 139.810398,202.86357 139.748954,202.813625 C137.48621,200.967477 138.598437,198.158754 138.024959,195.844939 C137.631361,194.259413 139.472901,193.621026 141.083804,193.78085 C141.318003,193.843508 141.557546,193.878923 141.778388,193.965192 C144.528232,195.037647 147.654754,195.829502 148.515861,199.154929 C148.864044,200.501627 142.695597,203.046097 140.093575,202.762772 M158.971144,218.519958 C157.106451,215.284432 155.177642,212.077056 152.331625,209.632477 C150.574682,208.12323 150.596944,207.40039 152.727895,206.169928 C157.075283,203.659966 158.030783,198.451159 154.715476,194.678043 C151.035957,190.48993 146.189892,188.342296 140.636776,188.037177 C139.92171,188.037177 139.192396,187.944552 138.493358,188.051707 C133.347197,188.842654 129.427245,192.859138 130.252733,196.665853 C131.281252,201.406085 131.726499,206.172652 131.680194,211.020947 C131.653479,213.82059 130.930398,216.429534 130.300819,219.112033 C129.860916,220.989056 129.483346,223.909475 132.390807,223.983938 C137.772949,224.122876 138.165657,223.477224 139.050807,217.361235 C139.206643,216.284239 139.228906,215.184542 139.263635,214.093017 C139.382071,210.328074 139.83266,210.083798 143.187149,211.90906 C146.758918,213.851465 149.518557,216.849072 151.322696,220.312529 C152.794682,223.140322 154.172275,223.622518 156.994249,222.961429 C160.304212,222.186827 160.749459,221.604741 158.971144,218.519958" id="Fill-25" fill="#422F27"></path>
            <path d="M271.314862,91.2405049 C271.258829,91.9339908 271.041925,92.4967528 270.494243,92.7813787 C269.828167,93.1281216 269.425088,92.475429 268.977724,92.1082894 C265.129489,88.9588622 260.987531,87.977969 256.334945,90.1567014 C255.806242,90.4042425 255.186259,91.1802421 254.410828,90.3958985 C253.638108,89.613409 254.004133,88.9060163 254.25538,88.0335962 C255.365204,84.1841933 258.690158,81.8432148 263.142108,81.9127489 C268.037807,81.9887727 271.720653,86.2182949 271.314862,91.2405049 M268.572837,100.705475 C268.225791,102.178669 266.248351,103.221679 263.818125,103.239294 C260.67302,103.10208 258.716368,100.935401 256.746158,98.8067327 C256.432552,98.4683338 256.278008,98.1104654 256.514794,97.5310153 C257.099531,96.1041774 262.109104,93.539763 263.665389,93.9819993 C265.53528,94.512312 268.934343,99.1701638 268.572837,100.705475 M277.916871,94.7218412 C278.060569,84.7960926 275.409825,79.6190535 269.349172,77.2428445 C263.944652,75.1243749 255.291096,75.464628 251.583848,80.2198274 C248.198342,84.5652397 246.428769,93.980145 249.840484,98.8271293 C253.454644,103.963375 257.403196,109.146904 264.785155,109.892309 C268.881021,110.305804 271.83995,109.590067 274.45364,106.668712 C277.721657,103.015858 278.241323,98.5295237 277.916871,94.7218412" id="Fill-27" fill="#422F27"></path>
            <path d="M205.615584,103.769885 C203.63585,103.795495 202.89057,102.66594 203.016408,100.739753 C203.296442,96.4556787 205.62356,93.424632 208.660511,93.7484071 C210.663286,93.9615133 211.004467,95.749593 211.117012,96.6815896 C211.018646,100.309882 208.033093,103.738788 205.615584,103.769885 M198.07682,94.4243104 C197.873884,87.6442412 200.329499,84.7577043 206.176538,84.293078 C208.561259,84.1037519 209.538719,85.9650011 210.569351,87.4640613 C211.323493,88.5606893 209.967632,88.7225768 209.217034,88.8753181 C205.139704,89.7039628 201.875889,92.2703831 198.07682,94.4243104 M211.025735,79.731874 C199.363559,74.7124461 192.717182,81.1175215 192.031276,92.3270895 C191.690095,97.9007764 194.172295,102.938497 197.91199,107.384459 C204.043495,114.67397 211.847227,112.713942 215.622369,105.794851 C217.640209,102.097962 217.561339,97.8925448 218,93.8965753 C217.65173,88.0613074 217.343338,82.4501211 211.025735,79.731874" id="Fill-29" fill="#422F27"></path>
            <path d="M181.481405,210.746755 C180.421949,212.120151 179.46059,213.42832 177.427291,213.11396 C175.238818,212.775141 174.03935,211.125435 173.375852,209.41322 C171.457595,204.46229 173.219788,199.907253 175.706121,195.704625 C176.956421,193.590175 178.922836,194.350253 180.253399,195.827832 C182.288482,198.087231 183.657392,200.742524 183.58694,203.945907 C183.543242,206.427261 183.037592,208.729239 181.481405,210.746755 M189.8759,196.688469 C185.047705,186.211341 174.052727,184.943939 167.728095,194.338476 C163.588369,200.486145 162.385333,207.190963 166.760494,213.84052 C170.069957,218.871172 174.469197,220.848826 180.76975,219.668394 C186.901753,218.519669 191.968058,213.059604 191.980543,205.297561 C192.149985,202.49913 191.193086,199.547597 189.8759,196.688469" id="Fill-31" fill="#422F27"></path>
            <path d="M470.940192,190.016034 C470.616405,192.169174 468.569861,192.550949 466.947408,192.987005 C466.173135,193.195082 465.927656,192.20717 466.462608,191.42824 C467.146255,189.848668 465.487728,186.996209 468.345498,186.748327 C469.737429,186.628004 471.217346,188.174104 470.940192,190.016034 M481.103401,208.790873 C480.122362,205.93751 478.823696,203.232515 477.063105,200.876726 C475.544475,198.843908 475.297235,197.583688 477.162529,195.476687 C480.059892,192.203552 479.95431,188.118014 477.57958,184.583426 C475.225087,181.075979 470.611126,179.202385 467.099623,180.325094 C461.868883,181.998753 459.327861,185.21037 458.915208,189.46056 C458.370578,195.063248 458.283472,200.750975 456.631984,206.210724 C456.002007,208.293299 455.599913,210.66899 456.632864,212.529919 C457.696609,214.444223 458.924007,211.486822 460.278104,212.000681 C460.604531,212.124622 460.928317,212.260324 461.256504,212.380646 C462.340485,212.776897 463.010055,212.023298 462.962543,211.205466 C462.752258,207.571364 465.449894,204.669148 465.245768,201.072137 C465.191217,200.116794 465.603869,199.286297 466.430053,199.08003 C467.496438,198.813149 468.160728,199.724163 468.612974,200.570039 C470.46155,204.030443 472.378755,207.462802 474.014406,211.029958 C474.920657,213.00759 475.507521,214.904706 477.826819,213.53321 C482.661625,213.115247 482.599155,213.137864 481.103401,208.790873" id="Fill-33" fill="#422F27"></path>
            <path d="M315.123463,201.460547 C313.96702,201.865288 313.011502,202.945182 311.55858,202.680915 C311.253172,201.171697 312.477484,200.266518 312.794502,199.061074 C312.95435,198.45528 313.547306,197.776615 314.438527,198.121654 C315.146682,198.395579 315.453876,199.011031 315.72535,199.708133 C316.047726,200.53693 315.820009,201.216473 315.123463,201.460547 M327.475534,208.327095 C324.812588,201.723058 321.975505,195.179601 318.993755,188.708136 C317.568516,185.613317 313.350845,184.856513 311.322826,188.100586 C306.392536,195.986448 303.8814,204.615946 302.106996,213.545706 C301.907855,214.550095 301.83195,215.952202 303.323271,215.998734 C305.054811,216.053168 306.39075,214.331483 308.442879,214.782756 C309.091202,214.924986 309.000116,213.165548 309.331421,212.302511 C309.706484,211.32446 310.169955,210.288464 310.169955,209.277928 C310.170848,206.379773 311.378193,205.340265 313.810743,206.311292 C319.312558,206.448254 320.030536,207.329729 318.808903,212.17784 C318.572256,213.11726 318.182905,214.104968 319.084842,214.718664 C320.018927,215.354309 321.134292,216.082141 322.319312,214.940789 C322.633651,214.63877 323.114982,214.39294 323.547197,214.340262 C327.381768,213.872308 328.895415,211.848604 327.475534,208.327095" id="Fill-35" fill="#422F27"></path>
        </g>
    </g>
</svg>