<?xml version="1.0" encoding="UTF-8"?>
<svg width="461px" height="412px" viewBox="0 0 461 412" version="1.1" xmlns="http://www.w3.org/2000/svg" xmlns:xlink="http://www.w3.org/1999/xlink">
    <!-- Generator: Sketch 53.2 (72643) - https://sketchapp.com -->
    <title>Artboard Copy 11</title>
    <desc>Created with Sketch.</desc>
    <defs>
        <polygon id="path-1" points="0 0.490116832 460.183459 0.490116832 460.183459 412 0 412"></polygon>
    </defs>
    <g id="Artboard-Copy-11" stroke="none" stroke-width="1" fill="none" fill-rule="evenodd">
        <g id="Group-10">
            <g id="Group-3">
                <mask id="mask-2" fill="white">
                    <use xlink:href="#path-1"></use>
                </mask>
                <g id="Clip-2"></g>
                <path d="M348.052348,237.42275 C347.095671,239.323661 345.669835,239.682632 343.556578,239.089107 C341.416804,238.487424 339.472853,237.547166 337.512583,236.529404 C336.058189,235.772711 334.332499,235.558552 332.769994,234.987463 C331.770481,234.622374 330.693454,234.614216 329.70414,234.106354 C329.161547,233.826929 328.306862,234.098196 327.605162,234.200176 C326.999335,234.287879 326.411866,234.4898 325.706087,234.667246 C325.120658,235.474929 325.037025,236.531444 325.034985,237.655265 C325.034985,238.4038 324.759609,239.156414 324.571946,239.89679 C324.17214,241.473404 324.135423,243.03982 324.804485,244.775523 C326.36495,246.237919 327.805065,248.104156 329.151348,250.062176 C330.3936,251.871305 332.431384,252.6178 334.287623,253.586612 C334.554839,253.727345 334.834295,253.845642 335.297335,254.063879 L338.571251,254.063879 C338.946578,254.516671 339.456534,254.947028 339.73395,255.495681 C340.733463,257.476137 341.904322,259.336255 343.095578,261.210651 C344.492857,263.411384 345.064008,266.081226 346.081879,268.512434 C346.314419,269.067206 346.18387,269.811661 346.104317,270.452097 C345.824862,272.699741 346.548999,274.808691 347.240499,276.840137 C347.57503,277.821186 347.748415,278.806315 347.519954,279.60584 C346.977362,281.498592 346.573477,283.444374 345.879937,285.275939 C345.506649,286.263107 345.863618,287.178889 345.49849,288.015127 C344.755994,291.094929 342.247012,292.68378 339.884897,294.611206 C338.23468,294.955899 333.404379,297.533958 331.66237,299.063661 C329.714339,299.006552 327.698994,299.357364 325.90803,298.19683 C325.78564,298.117285 325.606136,298.066295 325.467428,298.088731 C323.37049,298.437503 321.377583,297.491127 319.305123,297.601265 C317.699782,297.684889 316.361658,296.80582 314.888906,296.424414 C313.218291,295.989978 311.566034,295.376057 310.017808,294.615285 C309.052972,294.140057 307.906592,293.846354 307.382357,292.565483 C307.041707,291.733325 306.127866,291.133681 305.479202,290.442255 C305.691344,289.124671 304.245109,288.675958 304.208392,288.05184 C304.375658,286.958612 304.477649,286.289622 304.595959,285.522731 C305.605671,284.513127 306.760211,283.46885 307.778083,282.306275 C308.477742,281.50879 308.991777,280.546097 309.65064,279.560968 C310.992844,278.951127 312.428879,278.606434 314.011782,279.407998 C314.670645,279.740453 315.537569,279.640513 316.296384,279.795523 C318.666658,280.282988 320.333193,282.192057 322.803419,282.932434 C324.145623,282.328711 325.781561,281.873879 327.382822,281.553661 C328.78622,281.270156 329.671503,280.329899 330.815844,279.764929 C331.356397,279.49978 331.523662,278.484057 331.876552,277.778354 C331.746003,277.639661 331.43799,277.454057 331.454308,277.305166 C331.656251,275.58578 330.532308,274.590453 329.555233,273.419721 C327.962131,271.51677 326.405746,269.548552 325.116578,267.435523 C324.247614,266.00984 323.074715,264.922731 321.87326,263.929444 C319.658012,262.09584 316.659472,259.046632 314.631888,256.68885 C312.743012,254.494236 311.392649,251.963087 309.701636,249.650176 C308.698043,248.275483 308.098335,246.578533 307.482308,244.963166 C307.23753,244.322731 307.245689,243.439582 307.482308,242.793028 C307.988185,241.404057 308.049379,239.939622 308.432866,238.542493 C308.814313,237.159642 309.344667,235.817582 309.713875,234.430651 C310.009649,233.319067 310.148357,232.166691 310.387016,231.03879 C310.46453,230.673701 310.621596,230.322889 310.770503,229.978196 C311.994397,227.155384 314.019941,224.926097 316.347379,223.029265 C317.297937,222.254216 318.540189,221.693325 319.984384,221.774909 C322.260826,221.901364 324.553587,221.87281 326.834109,221.787147 C328.565919,221.721879 330.267131,221.927879 332.041777,221.397582 C334.295782,220.726552 336.549786,221.689246 338.4713,222.845701 C339.913454,223.712533 341.416804,224.452909 342.916074,225.142295 C345.480131,226.325265 347.57095,227.944711 349.025344,230.351444 C349.41495,230.993919 349.678087,231.711859 350.084012,232.578691 C349.400671,234.23485 348.827481,235.87877 348.052348,237.42275 L348.052348,237.42275 Z M298.845698,295.681998 C297.738074,296.395859 296.844631,296.968988 295.747207,297.674691 C294.147985,297.499285 292.338662,297.079127 290.553817,297.16275 C288.685339,297.252493 286.978008,296.381582 285.325751,296.614097 C283.469512,295.608572 281.756061,294.723384 280.368981,293.314018 C278.759561,291.676216 277.719251,289.769186 277.072627,287.580691 C276.368888,285.196394 275.510123,282.865127 274.531008,280.568533 C273.615127,278.422869 273.041937,276.134434 272.175012,273.964295 C270.828729,270.59079 270.088273,267.023523 268.762388,263.645939 C268.570645,263.160513 268.319746,262.695483 267.921981,261.853127 C267.664963,261.596137 267.091773,261.023008 266.494105,260.427444 C265.084587,260.178612 264.739857,261.581859 264.025919,262.014255 C263.768901,262.883127 263.611835,263.554156 263.375215,264.194592 C262.74899,265.881345 262.901977,267.631325 262.893817,269.371107 C262.885658,271.406632 262.916255,273.444196 262.875459,275.479721 C262.86526,275.993701 262.644959,276.503602 262.494012,277.123642 C262.602123,277.564196 262.8571,278.149562 262.873419,278.741048 C262.924415,280.776572 262.891777,282.814137 262.891777,284.849661 C262.891777,285.9898 262.795906,287.142176 262.922375,288.268038 C263.030485,289.23685 263.711786,290.036374 264.01164,290.997028 C264.323733,291.998473 264.440003,292.704176 263.885171,293.579166 C263.3181,294.470473 262.853021,295.427048 262.267592,296.49784 C261.855547,296.661008 261.159968,296.744632 260.764242,297.134196 C260.125777,297.760354 259.299649,297.795028 258.761136,297.535998 C257.67595,297.015899 256.501012,297.058731 255.401547,296.816018 C253.786008,296.461127 252.041959,296.665087 250.352985,296.689562 C250.004176,296.693642 249.669645,297.028137 249.306556,297.085246 C248.841477,297.156632 248.353959,297.103602 247.960273,297.103602 C247.703255,296.846612 247.52987,296.673246 247.225937,296.369345 C247.225937,292.284018 247.348326,288.059998 247.1831,283.848216 C247.079069,281.186533 247.815446,278.620711 247.709375,275.983503 C247.670618,275.057523 247.839923,274.156018 247.281012,273.221879 C246.832251,272.471305 247.52987,271.392354 246.836331,270.466374 C246.520158,270.046216 246.738419,269.214057 246.738419,268.569543 C246.736379,260.015444 246.746578,251.461345 246.7221,242.909285 C246.720061,242.150552 246.96076,241.363265 246.318215,240.61677 C246.03468,240.286354 246.087715,239.460315 246.275379,238.966731 C247.287131,236.296889 246.669065,233.545463 246.679264,230.849107 C246.689463,228.10584 246.695583,227.585741 247.631862,225.513503 C248.539583,223.502453 250.134724,222.835503 252.111313,222.80083 C255.291397,222.74576 258.473521,222.786552 261.682162,222.786552 C261.890224,223.008869 262.114605,223.245463 262.40222,223.553444 C262.40222,225.57877 262.624561,227.720354 262.341025,229.792592 C262.05953,231.848513 261.880025,233.886077 261.912662,235.952196 C260.864193,236.823107 261.920822,238.277345 260.988623,239.264513 C260.780561,239.48479 261.266038,240.35978 261.394547,240.804414 C262.120724,240.575978 262.622521,240.416889 263.330339,240.194572 C263.617954,239.906988 264.029999,239.376691 264.552193,238.997325 C265.916835,238.008117 266.518583,236.466176 266.722565,235.022137 C266.997941,233.076354 268.056609,231.726137 269.235627,230.428949 C271.542667,227.889642 273.545773,225.185127 274.726831,221.954394 C275.88749,221.50976 276.903322,220.983543 278.267963,221.662731 C279.326631,222.188949 280.687193,222.105325 281.913127,222.299087 C282.906521,222.456137 283.979468,222.931364 284.87087,222.700889 C285.79695,222.462255 286.680193,222.28685 287.385972,222.299087 C289.185096,223.029265 290.217246,224.230592 290.876109,225.768453 C290.339636,227.765226 289.462512,229.470335 287.938764,230.757325 C285.788791,232.574612 284.477185,235.075166 282.622985,237.137206 C282.006959,237.820473 281.719344,238.891265 281.5276,239.835602 C281.201229,241.426493 280.391419,242.790988 279.253198,243.75776 C277.631538,245.136533 276.966556,246.90079 276.648344,248.809859 C276.444362,250.031582 275.748782,251.208434 276.11391,252.507661 C276.299534,253.162374 276.417844,253.868077 276.756454,254.437127 C277.231733,255.236651 277.780446,256.048414 278.480105,256.648057 C280.970729,258.783523 282.431242,261.659364 284.134494,264.349602 C284.7648,265.344929 285.121769,266.562572 285.386946,267.729226 C285.980534,270.346038 287.312538,272.499859 288.960715,274.584335 C289.770525,275.606176 290.802676,276.646374 290.847552,278.202592 C290.86591,278.808354 291.481937,279.385562 291.769552,279.999483 C292.603839,281.773939 293.40141,283.560632 294.225499,285.339166 C294.880282,286.748533 295.70641,288.033483 296.783437,289.175661 C297.587127,290.030255 298.24803,291.019463 299.182269,292.214671 C299.084357,293.222236 298.957888,294.529622 298.845698,295.681998 L298.845698,295.681998 Z M237.406229,294.43376 C237.27364,294.490869 237.077817,294.570414 236.886074,294.658117 C234.9666,295.535147 233.089963,296.524354 231.117454,297.262691 C228.445286,298.266176 225.701724,298.694493 223.041795,297.138275 C222.444127,296.787463 221.636357,296.463166 221.381379,295.916552 C220.210521,293.383364 218.297167,291.209147 217.703578,288.400612 C217.609746,287.953939 217.33437,287.499107 217.387406,287.078949 C217.772932,284.015463 216.498043,281.315028 215.678034,278.494255 C215.276189,277.113444 214.105331,275.956988 214.425583,274.366097 C213.64637,273.850077 213.936025,273.050552 213.952344,272.369325 C214.009459,270.056414 213.226167,267.829166 213.379154,265.483622 C213.448508,264.423028 212.808003,263.309404 212.465313,262.228414 C211.767693,260.03176 209.440255,259.2098 207.679888,260.617127 C207.029185,261.137226 206.604901,261.94083 206.129623,262.548632 C205.93176,264.855424 206.749729,266.931741 207.023065,269.079444 C207.298441,271.241424 207.08222,273.468671 207.08222,275.922315 C207.339238,276.077325 207.755362,276.330236 207.873671,276.401622 C208.2388,277.396949 208.11641,278.063899 208.432583,278.775721 C208.975176,280.003562 208.285715,281.329305 207.720685,282.532671 C207.322919,283.377067 206.935353,284.211265 207.063862,285.202513 C207.110777,285.563523 206.972069,285.965325 206.84968,286.326335 C206.455994,287.48279 206.50699,288.61477 206.835401,289.783463 C207.176052,290.994988 207.42287,292.224869 206.647738,293.413958 C206.494751,293.646473 206.596742,294.044196 206.578384,294.441919 C206.031711,294.94978 205.438123,295.500473 204.754782,296.13479 C203.687954,296.336711 202.415105,296.401978 201.287083,296.840493 C200.079508,297.313681 198.886211,297.144394 197.733711,297.046493 C196.548574,296.946552 195.402193,296.395859 194.108946,296.002216 C193.676503,295.531067 193.13391,294.937543 192.295543,294.0238 C192.199671,293.173285 191.926335,291.85978 191.940614,290.550354 C191.956932,289.069602 192.138477,287.572533 192.417932,286.116255 C192.876892,283.717681 192.79326,283.748275 192.458729,281.133503 C192.299623,279.895463 192.09768,278.667622 191.926335,277.433661 C191.697875,275.775463 192.146636,274.182533 192.67699,272.624275 C193.129831,271.290374 193.588791,269.960552 193.286897,268.202414 C192.948286,267.920949 192.391415,267.457958 191.861061,267.015364 C191.706034,265.856869 191.206277,264.677978 191.485733,263.727523 C192.232308,261.180057 191.693795,258.626473 191.920215,256.093285 C191.995689,255.257048 192.244547,254.437127 192.393454,253.607008 C192.526043,252.852354 192.124198,252.038552 192.846295,251.326731 C193.091074,251.086057 192.885052,250.388513 192.885052,249.901048 C192.885052,244.363523 192.913609,238.825998 192.862614,233.288473 C192.852415,232.052473 192.489326,230.822592 192.415892,229.580473 C192.33226,228.201701 192.395494,226.812731 192.395494,225.429879 L192.395494,221.621939 C192.844255,221.146711 193.233862,220.734711 193.605109,220.341067 C194.704574,220.341067 195.765282,220.320671 196.82599,220.345147 C203.932733,220.506275 211.029277,220.957028 218.14826,220.908077 C220.371667,220.8938 222.646069,221.581147 224.692012,222.755958 C225.820034,223.402513 226.391185,224.328493 226.646162,225.470671 C227.076565,227.402176 227.808862,229.449939 228.932804,230.622711 C229.601866,231.322295 230.532025,231.775087 231.607012,232.521582 C232.449459,234.151226 231.998658,236.227543 231.9701,238.267147 C231.345915,238.652632 231.51726,239.284909 231.578454,239.807048 C231.894627,242.542156 231.347954,245.246671 230.974667,247.898156 C230.554463,250.886176 229.599826,253.827285 227.335623,256.154473 C226.152525,257.370077 225.273362,258.875305 224.228972,260.286711 L224.228972,263.133998 C225.046941,263.951879 225.854711,264.757523 226.662481,265.563166 C226.699198,266.895028 226.480937,268.257483 227.154078,269.513879 C227.688512,270.513285 228.05976,271.643226 228.767578,272.49578 C229.973114,273.943899 230.540185,275.544988 230.578941,277.378592 C230.5973,278.273978 230.580981,279.169364 230.580981,280.356414 C231.431587,281.61077 232.490255,283.022176 233.377578,284.531483 C234.020123,285.62879 234.668786,286.8138 234.903366,288.037562 C235.244016,289.828335 236.408755,291.031701 237.406229,292.591998 L237.406229,294.43376 Z M181.60891,292.510414 C181.504879,293.338493 181.251941,294.150255 181.062238,294.976295 C180.376857,295.659562 179.685357,296.350988 179.144804,296.891483 C176.266614,297.909246 173.474096,298.264137 170.563269,298.045899 C170.147145,297.62778 169.733061,297.107681 169.221065,296.716077 C168.435733,296.114394 167.583087,295.600414 166.581534,294.929384 C166.312277,294.407246 165.930831,293.666869 165.539185,292.904057 C165.465751,291.923008 165.522866,290.856295 165.282167,289.863008 C164.841565,288.029404 164.635543,286.126453 163.542198,284.470295 C162.993485,283.638137 162.418255,283.238374 161.461578,282.84677 C158.930158,281.810651 156.319185,281.698473 153.771446,282.035008 C151.800977,282.294038 149.612246,282.587741 148.145614,284.335681 C145.956884,285.031186 145.979322,287.093226 145.408171,288.782018 C145.334738,289.000255 145.406131,289.267444 145.397972,289.510156 C145.344937,290.921562 145.720264,292.383958 144.794185,293.719899 C143.417304,296.010374 140.861406,296.587582 138.566605,297.570671 C138.221875,297.719562 137.713959,297.707325 137.35903,297.572711 C134.93776,296.65285 132.426738,297.340196 130.034025,297.066889 C129.540388,296.775226 129.109985,296.410137 128.612269,296.251048 C127.163994,295.788057 126.800906,294.711147 126.790707,293.365008 C126.782547,292.088216 127.21091,290.992949 127.857534,289.889523 C128.967198,287.994731 129.887158,286.059147 130.303282,283.801305 C130.835676,280.927503 131.559813,278.051661 133.371176,275.544988 C134.578751,273.870473 135.231494,271.887978 135.147862,269.683166 C135.023432,266.309661 136.365636,263.407305 138.417698,260.782335 C139.023525,260.005246 139.468207,259.103741 140.012839,258.216513 C140.012839,257.61075 140.049556,256.962156 140.00672,256.315602 C139.829255,253.541741 140.147468,250.882097 141.461114,248.359107 C142.215848,246.908949 142.054702,245.25483 141.944552,243.688414 C141.805844,241.6998 142.399432,240.05384 143.58049,238.477226 C144.147561,237.718493 144.347463,236.688493 144.920654,235.273008 C144.325025,231.436513 145.626432,227.338949 146.972715,223.227107 C147.790685,221.756552 149.120649,221.136513 150.850419,221.315998 C152.767853,221.515879 154.566977,220.593978 156.523167,220.78978 C158.379406,220.977424 160.270322,220.830572 162.177556,220.830572 C163.986879,222.156315 165.116941,223.943008 165.655454,226.137622 C165.871676,227.016691 166.073618,227.928394 166.481583,228.72384 C166.85895,229.466255 167.332189,230.108731 167.595326,230.959246 C168.560162,234.096156 168.609118,234.069642 167.938016,237.261622 C167.807468,237.879622 167.917618,238.550651 167.917618,239.309384 C168.766185,240.425048 169.749379,241.538671 170.516353,242.786909 C171.097702,243.735325 171.615817,244.822434 171.789202,245.907503 C172.111494,247.93079 172.125773,250.003028 172.333835,252.04875 C172.574534,254.414691 173.357826,256.656216 173.998331,258.930374 C174.410375,260.388691 175.15899,261.73279 175.293618,263.293087 C175.377251,264.25782 176.450198,264.953325 176.248255,266.064909 C177.676131,268.555265 178.010662,271.373998 178.749078,274.078513 C179.002016,275.008572 179.101968,275.8958 179.197839,276.82382 C179.283512,277.655978 179.324308,278.602354 179.746552,279.269305 C180.699149,280.766374 180.680791,282.497998 181.047959,284.099087 C181.370251,285.510493 181.902645,286.976968 181.659906,288.522988 C181.598711,288.910513 181.9516,289.361265 182.114786,289.783463 C181.415127,290.595226 181.72314,291.586473 181.60891,292.510414 L181.60891,292.510414 Z M121.691149,261.891879 C120.793627,262.110117 119.877746,262.293681 118.959826,262.371186 C117.98887,262.45277 116.999556,262.324275 116.0286,262.407899 C115.11068,262.487444 114.096888,261.987741 113.27076,262.854572 C113.119813,263.011622 112.499707,262.993265 112.352839,262.828057 C111.616463,262.010176 110.653667,262.613899 109.982565,262.371186 C109.46241,261.957147 109.040167,261.622651 108.636282,261.304473 C108.411901,261.512513 108.19976,261.624691 108.207919,261.712394 C108.31399,262.7118 107.838711,263.807067 108.695437,264.702453 C107.822392,266.425919 108.238516,268.257483 108.287472,270.062533 C108.972853,270.5398 108.666879,271.249582 108.668919,271.855345 C108.691357,276.413859 108.695437,280.974414 108.666879,285.532929 C108.6628,286.214156 108.562848,286.868869 108.326229,287.576612 C108.008016,288.525028 108.112047,289.6978 108.454738,290.833859 C109.095242,292.971364 108.715835,295.017087 107.222685,296.397899 C102.512733,298.005107 97.9414898,297.505404 93.2009412,297.609424 C92.9582022,297.260651 92.6359102,296.797661 92.3136181,296.332632 C91.8322199,295.459681 92.1789898,294.533701 92.4972022,293.556731 C92.8072553,292.606275 92.3278969,291.588513 92.8908881,290.534038 C93.5497509,289.306196 92.8235739,287.913147 92.4951624,286.650632 C91.9892863,284.708929 92.0219235,283.534117 92.3319765,281.847364 C92.7236226,279.728216 93.7578128,277.766117 93.55995,275.479721 C93.3886049,273.529859 92.6644677,271.741127 92.315658,269.852453 C92.2055075,269.25485 92.0525208,268.638889 92.0484412,268.031087 C92.0260031,264.123206 92.0443615,260.213285 92.0300827,256.305404 C92.0260031,255.511998 92.142273,254.798137 92.4808836,254.045523 C92.7827774,253.378572 92.2422243,252.438315 93.0153173,251.826434 C92.8847686,249.309562 93.3314898,246.776374 92.3258571,244.294176 C91.2467907,241.630453 91.5262465,240.196612 91.9362509,237.224909 C92.211627,235.20978 92.280981,233.09675 91.750627,231.018394 C91.1835562,228.803384 90.8265872,226.521067 91.0836049,224.220394 C91.1570385,223.567721 91.5466447,222.9538 91.8159013,222.252176 C92.9786004,221.181384 94.6288173,220.867285 96.0485341,220.912156 C100.003751,221.036572 103.895733,220.220731 107.832592,220.359424 C109.562362,220.418572 111.281932,220.730632 113.011702,220.812216 C114.719034,220.8938 116.479401,220.587859 118.135738,220.89176 C120.200038,221.271127 122.456083,221.399622 124.028786,223.180196 C124.3266,223.516731 126.584685,225.792929 126.794786,226.151899 C128.300176,228.701404 129.05287,231.569087 130.21149,234.265444 C129.86472,236.237741 130.968264,237.832711 131.574092,239.562295 C131.727078,239.994691 131.684242,240.504592 131.686282,240.97982 C131.696481,243.423265 131.672003,245.866711 131.70464,248.308117 C131.7128,248.895523 131.898423,249.480889 132.075888,250.478255 C130.55622,252.974731 128.728538,255.773067 127.241508,258.765166 C125.517857,260.029721 123.828884,261.369741 121.691149,261.891879 L121.691149,261.891879 Z M460.183459,234.520394 C459.167627,234.293998 460.140623,232.874434 458.690308,232.662315 C455.940627,232.548097 455.3246,233.833048 454.837083,236.388671 C454.612702,237.569602 454.714693,238.834156 454.828923,240.045681 C454.902357,240.820731 454.473994,241.467285 454.563746,242.272929 C454.63718,242.9358 454.157822,243.70677 453.802892,244.363523 C453.401047,245.103899 452.836016,245.752493 452.389295,246.470434 C451.542769,247.82881 450.635047,249.160671 449.957826,250.600632 C449.737525,251.067701 449.660012,251.58576 449.286724,252.038552 C448.607463,252.864592 448.468755,254.047562 447.538596,254.732869 C446.7961,255.281523 446.018928,255.803661 445.358025,256.440018 C443.536463,258.194077 441.761817,259.993008 439.985131,261.789899 C439.201839,262.581265 438.343074,263.109523 437.221171,263.413424 C435.677025,263.833582 434.369499,264.835028 433.064012,265.765087 C431.711609,266.72982 430.304131,267.468156 428.549884,267.29479 C427.660521,267.205048 426.75076,267.343741 425.859357,267.264196 C424.333569,267.127543 422.879176,267.482434 420.941344,268.075958 C420.761839,268.334988 420.153972,268.967265 419.83576,269.719879 C419.117742,271.427028 418.024397,272.899622 417.002446,274.40485 C416.545525,275.075879 415.652083,275.440968 414.9973,275.991661 C413.72241,277.066533 412.539313,278.26378 411.197109,279.24483 C409.914061,280.183048 408.475985,280.909147 406.862485,281.172255 C404.284149,281.592414 401.716012,281.884077 398.835782,280.505305 L395.774008,280.505305 C394.886685,281.45984 393.956525,282.449048 393.577118,283.884929 C393.269105,285.051582 392.155362,285.63083 391.13137,285.800117 C389.670857,286.04283 388.238901,286.65675 386.688636,286.365087 C386.058331,286.24679 385.387229,286.346731 384.734485,286.346731 C382.674264,285.553325 381.703308,283.923681 381.048525,281.908552 C380.079609,278.93277 380.014335,273.136216 381.79918,270.290968 C383.231136,268.010691 385.175087,266.281107 386.968092,264.374077 C387.857454,264.590275 387.604516,263.670414 387.969645,263.358354 C388.402087,262.987147 388.783534,262.55883 389.193538,262.150909 L389.193538,260.174533 C388.740698,259.742137 388.269499,259.293424 387.67387,258.726414 C388.508158,257.629107 386.329627,256.548117 387.694269,255.334552 C387.730985,254.322909 387.547401,253.205206 388.247061,252.397523 C388.979357,251.553127 388.750897,250.500691 389.132344,249.574711 C389.907477,247.700315 390.67853,245.907503 392.1778,244.467543 C393.022286,243.653741 393.719906,242.68085 394.439963,241.744671 C395.969831,239.758097 398.291149,238.844354 400.349331,237.406434 L400.349331,235.201622 C399.847534,234.730473 399.453848,233.786137 398.121844,234.081879 C397.717959,233.622968 397.261038,233.053919 396.749043,232.537899 C395.933114,231.720018 395.553707,230.791998 395.537388,229.604949 C395.506791,227.371582 395.6353,225.16677 396.373715,222.535681 C397.106012,221.336394 399.451808,219.70879 401.438596,218.841958 C403.712999,217.848671 405.981282,216.7738 407.870158,215.152315 C407.3806,213.522671 405.942525,213.190216 404.867538,213.098434 C403.150008,212.951582 402.142335,212.005206 401.014313,210.871186 L401.014313,208.576632 C401.579344,206.855206 402.415671,205.519265 403.00314,204.022196 C404.037331,201.382949 405.785459,199.088394 408.812556,197.850354 C409.771273,197.850354 410.997207,197.797325 412.217021,197.87279 C412.890162,197.915622 413.555145,198.315384 414.218087,198.299067 C414.785158,198.28275 415.344069,197.905424 416.035569,197.638236 L416.035569,195.808711 C414.903468,195.03978 413.622459,193.999582 412.190503,193.23881 C410.642277,192.418889 409.736596,190.962612 408.435189,189.987681 C408.170012,186.444889 408.259764,185.994137 409.734556,183.434434 L409.734556,180.036453 C411.382733,178.329305 413.14514,176.901582 415.713277,176.777166 C416.312985,176.748612 416.922892,176.146929 417.453246,175.718612 C418.022357,175.261741 418.503755,174.69677 418.995353,174.205226 L418.995353,172.971265 L416.729109,172.971265 C415.574569,173.395503 414.581176,173.758552 413.646937,174.101206 C413.120662,173.328196 412.733096,172.761186 412.206822,171.990216 C412.206822,170.788889 412.527074,169.23879 412.137468,167.892651 C411.464326,165.577701 411.947764,163.277028 411.64587,160.917206 C412.522994,160.238018 413.292008,159.307958 414.271123,158.955107 C415.907061,158.367701 415.829547,157.005246 416.096764,155.79576 C416.249751,155.096176 416.123282,154.335404 416.123282,153.437978 C415.195162,152.255008 414.201769,150.959859 413.177777,149.689186 C412.147667,148.412394 411.64995,146.882691 411.260344,145.352988 C410.8483,143.731503 410.530087,142.09982 409.932419,140.519127 C409.638685,139.737958 409.771273,138.793622 409.80595,137.967582 C410.479092,135.664869 413.088025,135.277345 414.30376,133.213265 C412.859565,130.145701 411.378654,127.037345 407.305127,125.725879 C407.001193,125.407701 406.440242,124.818255 405.844614,124.192097 L405.844614,111.728077 C407.011392,109.419246 408.221008,107.318453 410.38526,105.701048 C410.189437,105.211543 410.122123,104.467087 409.787592,104.314117 C407.631499,103.339186 406.548353,101.242473 404.85122,99.8025129 C404.541167,99.539404 404.27191,99.2293842 404.120963,99.0784535 C403.855786,98.4237406 403.6926,97.9179188 403.458021,97.4488099 C402.440149,95.4153248 401.840441,93.2227505 401.099985,91.093404 C400.759335,90.1164337 400.673662,88.9885327 400.477839,87.9279386 C399.935246,85.0092653 399.865892,82.0518396 399.967884,79.0903347 C399.974003,78.9271663 399.947485,78.7599188 399.971963,78.6008297 C400.277937,76.565305 399.43141,74.8071663 398.611401,73.0510673 C398.062689,71.8721762 398.042291,71.8823743 396.224808,70.6586119 C395.547587,69.190097 395.445596,67.6359188 395.594503,66.1184535 C395.300769,65.8247505 395.070269,65.5942752 394.833649,65.3576812 L393.860654,65.3576812 C393.281344,66.2183941 393.160994,67.1708891 393.081441,68.2090475 C392.850941,71.1950277 392.536808,74.1871267 390.747884,76.7672257 C390.0931,77.7115624 389.574985,78.7721564 388.822291,79.6287901 C386.460176,82.3108693 384.469308,85.2132257 382.792574,88.3827703 C381.625795,90.5855426 379.645127,92.1009683 377.325848,93.0738594 C376.909724,93.2492653 376.342654,93.3247307 375.92653,93.194196 C374.635322,92.7842356 373.38287,92.2539386 371.930516,91.7012059 C371.785689,91.8317406 371.530711,92.2294634 371.345087,92.2009089 C370.365972,92.0438594 369.686711,92.6169881 369.370538,93.292097 C368.962574,94.1691267 368.228238,95.223602 368.693317,96.135305 C369.335862,97.3937406 368.970733,98.6236218 369.131879,99.6984931 C368.77491,100.294057 368.279233,100.74481 368.262915,101.213919 C368.193561,103.127067 366.602499,104.128513 365.764131,105.564394 C365.178702,106.56584 364.181229,107.28582 363.47953,108.272988 C362.859423,109.147978 361.604932,109.557939 360.672733,110.233048 C359.020477,111.430295 357.078565,111.81578 355.161131,112.293048 C353.610866,112.680572 352.046322,113.031384 350.536853,113.541285 C349.824954,113.779919 349.227286,114.355087 348.509269,114.824196 C348.762207,115.880711 348.26245,116.86176 348.95395,117.885642 C349.502662,118.697404 348.560264,119.968077 349.516941,120.818592 C348.554145,121.679305 349.368034,122.819444 348.937631,123.800493 C347.597468,126.035899 345.522968,127.722651 343.687127,129.629681 C342.200096,131.175701 340.476446,132.134315 338.138808,131.801859 C337.08422,132.446374 335.974556,133.125562 335.070915,133.678295 C334.842454,134.702176 334.679269,135.442552 334.458968,136.437879 C334.842454,137.614731 335.635946,139.107721 335.283056,140.621107 C334.962804,141.991721 334.522202,143.413325 333.312587,144.46576 C332.661884,145.030731 332.105012,145.96283 331.968344,146.805186 C331.527742,149.550493 329.542994,151.000651 327.509291,152.354949 C325.037025,154.002949 322.45053,155.446988 320.406627,157.696671 C319.543782,158.647127 318.915516,159.687325 318.395362,160.79483 C317.887446,161.881939 317.640627,163.087345 317.224503,164.221364 C316.843056,165.257483 316.3433,166.222216 315.07453,166.71376 C313.532423,166.499602 311.990317,166.114117 310.448211,166.118196 C308.906105,166.122275 307.716888,165.000493 306.207419,165.082077 C305.746419,164.621127 305.201786,164.215246 304.844817,163.684949 C304.473569,163.130176 304.179835,162.477503 304.039087,161.828909 C303.792269,160.69285 303.996251,159.342632 303.445499,158.416651 C302.794795,157.319345 303.278233,156.150651 302.658127,155.049265 C302.137972,154.121246 302.433746,152.795503 302.140012,151.622731 C301.785083,150.213364 301.185375,148.901899 300.808008,147.510889 C300.54487,146.535958 299.898246,145.793543 298.804901,145.424374 C297.66872,145.042968 296.795676,143.984414 295.428994,144.061919 C294.696698,143.327661 294.045994,142.424117 293.17295,141.871384 C292.36314,141.355364 291.991892,140.543602 291.345269,139.9358 C289.958189,138.636572 287.500202,134.83883 286.665915,132.837978 C286.49253,132.419859 286.408897,131.938513 286.402777,131.485721 C286.37626,129.448156 286.410937,127.410592 286.384419,125.373028 C286.3681,124.108473 287.247264,122.964255 286.878056,121.665028 C286.3681,119.876295 286.48641,117.99782 285.980534,116.180533 C285.660282,115.024077 284.507782,114.54885 284.493503,113.473978 C283.047269,112.990592 281.756061,112.558196 279.944698,111.950394 C279.514295,111.530236 278.857472,110.722552 278.492344,109.488592 C277.917114,107.550968 277.062428,105.676572 275.88137,103.973503 C273.988415,101.238394 273.990454,100.834552 274.524888,97.2978792 C274.943052,94.5199386 275.0838,91.5400772 274.04145,88.4643545 C272.213769,86.6409485 270.220862,84.6156218 268.183078,82.6372059 C267.632326,82.1028297 266.89799,81.7540574 266.328879,81.2339584 C264.164627,79.2596218 263.046804,76.6183347 261.94326,74.0096812 C261.219123,72.2984535 260.831556,70.4954436 260.872353,68.5578198 C260.90499,67.0118 261.804552,65.785998 261.933061,64.3215624 C261.963658,63.9707505 262.330826,63.6525723 262.381822,63.2976812 C262.461375,62.7469881 262.40222,62.1779386 262.40222,61.743503 C261.13345,59.410196 258.965118,58.694295 256.829423,57.9314832 C255.893145,57.3542752 255.395428,56.2202554 254.204171,55.9428693 C252.017481,53.0772257 249.37999,50.4930475 249.118892,46.5341762 C249.059738,45.6551069 248.615056,44.7393248 248.706848,43.7990673 C248.821078,42.6405723 248.996503,41.4841168 249.194366,40.3358198 C249.298397,39.7402554 249.653326,39.1610079 249.634968,38.5817604 C249.614569,38.0065921 249.2678,37.4416218 248.910831,36.4422158 C247.99291,35.0369287 245.981645,34.4943941 244.221277,33.562295 C243.213605,33.0279188 242.016229,32.5792059 241.349207,31.7409287 C240.61487,30.8190277 238.987092,30.8965327 238.88918,29.401503 C236.994185,28.4367703 236.082384,26.5990871 234.938043,24.967404 C233.312304,24.5350079 233.169516,22.634097 231.86199,21.8692455 C231.537658,21.6795624 231.248003,21.3246713 231.084817,20.9799782 C229.991472,18.6629881 228.936884,16.3276416 227.874136,13.9963743 C227.780304,13.7924139 227.674233,13.5762158 227.651795,13.3579782 C227.474331,11.6345129 227.400897,9.89473069 227.13164,8.18758218 C226.858304,6.4478 226.234118,4.7977604 225.093857,3.41490891 C223.986233,2.0708099 222.652189,0.997978218 220.997892,0.490116832 C220.498136,0.989819802 219.924946,1.56090891 219.306879,2.17890891 C218.994786,3.75756238 218.739808,5.43411683 218.309406,7.0658 C218.123782,7.77354257 217.632185,8.42621584 217.189543,9.03809703 C216.200229,10.4025921 215.26599,11.7324139 214.700959,13.3946911 C214.199162,14.8713644 213.07726,16.150196 212.173618,17.4759386 C210.111357,20.5047505 207.171972,22.7197604 204.764981,25.4283545 C204.222388,26.038196 203.110685,26.0422752 203.037251,27.1008297 C201.576738,28.3062356 201.503304,30.1031267 201.266685,31.7307307 C201.074941,33.0503545 200.728171,34.2537208 200.261052,35.4856416 C199.59199,37.2580574 198.839295,38.8815822 197.346145,40.1644931 C195.806078,41.488196 194.041631,42.4957604 192.250667,43.2483743 C190.9411,43.7970277 190.272038,44.7209683 190.035419,45.6999782 C189.690689,47.1154634 189.256207,48.5717406 189.419392,50.1259188 C189.56626,51.5189683 189.494866,52.9242554 189.019587,54.3356614 C188.556547,55.702196 187.648826,56.8382554 187.351012,58.3128891 C187.171508,59.2001168 186.251547,60.0139188 185.513131,60.7012653 C183.869034,62.2309683 181.880207,63.3445921 179.730233,63.8177802 C177.8128,64.2379386 177.166176,65.2271465 176.65214,66.9873248 C176.115667,68.8188891 175.593472,70.6280178 175.187547,72.4983347 C174.932569,73.6711069 175.04476,74.6480772 175.148791,75.7861762 C175.289538,77.3097604 174.946848,79.067899 173.743353,80.2671861 C172.564335,81.4399584 171.507707,82.7208297 170.032915,83.6447703 C168.953848,84.3198792 168.148118,85.5579188 167.456618,86.689899 C165.996105,89.0803149 163.927724,90.5345525 161.269835,91.2728891 C160.084698,91.6012653 159.040308,92.2151861 157.965322,93.0085921 C158.591547,94.085503 159.028069,95.1828099 159.764446,96.0170079 C160.719083,97.1000376 161.21272,98.2238594 161.084211,99.6515822 C161.065853,99.8371861 161.306552,100.043186 161.44118,100.263463 C160.40495,102.427483 159.578822,104.693483 159.591061,107.194038 C159.60126,109.468196 159.060707,111.691364 158.544631,113.861503 C157.98572,116.213166 156.194755,117.908077 153.877516,118.579107 C152.351729,119.019661 150.885096,119.84978 149.157366,119.662137 C148.219047,119.562196 147.396999,120.131246 146.862565,120.914453 C146.954357,122.262632 148.565817,122.862275 148.347556,124.2798 C149.322592,125.503562 148.631092,126.90885 148.784078,128.222354 C148.027304,128.75877 148.345516,129.558295 148.353676,130.235444 C148.386313,132.678889 147.857999,134.995879 147.074707,137.290434 C146.6851,138.432612 146.630025,139.68085 146.018078,140.767958 C145.64887,141.42675 145.371454,142.140612 144.96145,142.77085 C144.551446,143.405166 144.123083,144.100671 143.527454,144.522869 C142.878791,144.979741 142.695207,145.742552 142.07714,146.197384 C141.493751,146.627741 141.024592,147.215147 140.671702,147.567998 C139.702786,149.817681 140.014879,151.991899 140.035277,154.131444 C140.053636,155.95485 139.817016,157.688513 139.152034,159.395661 C138.929693,159.960632 138.999047,160.668374 139.045963,161.302691 C139.237707,163.958255 138.187198,166.281364 137.055096,168.549404 C136.228968,170.201483 134.886764,170.611444 133.006047,170.083186 C132.416538,169.917978 131.70464,170.001602 131.211003,169.70178 C129.377202,168.596315 127.386335,167.731523 125.770795,166.275246 C124.765162,165.369661 121.517764,163.723701 119.983817,163.117939 C118.141857,162.3898 116.401888,161.431186 114.823065,160.219661 C113.2728,159.026493 111.742932,157.80681 110.208985,156.591206 C109.896892,156.344414 109.650074,155.942612 109.303304,155.826354 C108.036574,155.400077 107.867269,154.370077 107.691844,153.27277 C107.451145,151.761424 107.2696,150.231721 106.720888,148.787681 C106.400636,147.943285 106.055906,147.107048 105.678538,146.160671 C104.426087,145.493721 103.096123,144.767622 101.74576,144.076196 C101.076698,143.733543 100.381118,143.4378 99.6814588,143.154295 C98.2127863,142.558731 97.351981,141.208513 96.682919,140.019424 C95.6834058,138.23681 93.8659235,137.592295 92.5665562,136.274711 C91.5446049,135.234513 90.6878792,134.186156 90.033096,132.848176 C88.7418881,130.20485 88.0993438,127.314731 86.3695739,124.799899 C85.0824456,122.931622 83.4975031,122.058671 81.5494721,121.620156 C79.9767686,121.265265 78.6366049,120.671741 77.5065429,119.5418 C76.2296137,118.265008 75.3116934,116.786295 74.5284013,115.150533 C73.5554058,113.119087 72.2907155,111.228374 70.5405473,109.649721 L70.5405473,106.773879 C70.8750783,106.141602 71.2259279,105.472612 71.5869765,104.785265 C72.527335,104.157067 73.5329677,103.486038 74.7017863,102.704869 C74.1306358,102.056275 73.7226712,101.589206 73.4391358,101.266949 C70.8363217,100.491899 68.1559942,100.940612 65.8530341,99.5863149 C63.3848482,99.6536218 61.416419,98.0056218 59.0808217,97.6221762 C56.9900031,96.0455624 54.5666934,94.8462752 53.348919,92.3069683 C52.6594588,90.8710871 51.83945,89.4984337 50.9623261,87.8830673 C50.8174987,85.443701 50.3972951,82.7881366 49.4589765,80.3304139 C47.5272642,79.2759386 45.6628659,78.2581762 43.7535916,77.2159386 C42.8825872,77.950196 43.0886093,79.0801366 43.0845296,80.1448099 C43.0743305,83.2429683 43.0294544,86.3390871 43.0947288,89.4352059 C43.1661226,92.8331861 42.3930296,95.9782554 40.9671934,99.0743743 C39.9024058,101.389325 38.9028925,103.763424 38.1767155,106.231345 C37.7809898,107.575444 37.1731226,108.821642 36.0185827,109.800651 C33.560596,110.051523 30.9618615,109.374374 28.4589987,110.551226 L28.4589987,111.785186 C32.1714765,114.80584 36.2837597,117.614374 39.2170252,122.307503 C39.7106624,123.975899 38.366419,125.654493 37.4484987,127.388156 C36.822273,128.569087 35.9410695,129.58685 34.447919,130.025364 C33.0914367,130.423087 31.8675429,131.261364 30.5477774,131.924236 C29.8746358,133.419265 29.8746358,133.419265 29.8623969,135.071345 C30.4621049,135.497622 31.0495739,136.025879 31.7308748,136.376691 C33.3464146,137.20885 34.3030916,138.661048 34.6824987,140.24582 C35.0619058,141.830592 35.9981845,143.545899 34.8232465,145.228572 C34.9639942,147.288572 34.0481137,149.167048 33.6809456,151.133226 C33.3749721,152.781226 33.5279588,154.543444 32.3754588,156.472909 C31.0148969,157.831285 29.2830872,159.560869 27.4839633,161.35776 L27.4839633,163.98885 C27.7430208,164.166295 28.0489942,164.545661 28.3876049,164.576255 C29.5809013,164.678236 30.3845916,165.361503 31.1740031,166.14675 C32.0042111,166.97279 32.3244633,167.933444 32.3407819,169.102137 C32.3550606,170.015879 32.8854146,170.850077 32.8405385,171.837246 C32.8038217,172.655127 33.0975562,173.499523 33.3035783,174.317404 C33.3933305,174.674335 33.6258704,174.996592 33.7972155,175.343325 C33.5932332,175.751246 33.3933305,176.155087 33.1811889,176.579325 C30.9455429,178.225285 28.2774544,177.73578 25.6950385,177.813285 C25.2952332,178.211008 24.8913482,178.61485 24.3263173,179.17982 C24.64045,179.854929 24.8444323,180.7238 25.3625473,181.325483 C26.5578836,182.710374 27.7736181,184.113622 29.0505473,185.386335 C30.137773,186.471404 31.0658925,187.713523 32.1143615,188.623186 C32.8792951,190.55877 32.4529721,192.594295 33.2892996,194.395265 C32.8996934,195.476255 34.4356801,195.698572 34.3051314,196.665345 C35.5004677,197.521978 35.9492288,198.906869 36.6978438,200.130632 C35.5677819,203.773364 33.8686093,207.222335 31.7920695,210.397998 C32.3876978,212.682354 34.1909013,213.381939 36.0410208,213.975463 C37.7544721,214.526156 39.4781226,215.048295 40.5653482,216.622869 C41.1283394,217.436671 41.6688925,218.279028 42.0870562,219.170335 C43.0131358,221.14875 43.8657819,223.1598 44.7184279,225.17085 C44.8958925,225.584889 45.0447996,226.064196 45.0203217,226.502711 C44.9305695,228.071166 45.1039544,229.611067 44.6429544,231.218275 C44.2105119,232.723503 44.5491226,234.451048 44.5491226,236.090889 C45.2487819,237.973444 46.8051668,239.089107 48.4839412,239.858038 C51.7048217,241.334711 54.0241004,243.784275 55.4866535,246.794731 C56.8574146,249.613463 57.6998615,252.778929 55.8069058,255.866889 C55.5702863,256.256453 55.388742,256.837741 55.0419721,256.976434 C53.165335,257.720889 52.8083659,259.21184 52.8716004,260.967939 C52.8797597,261.206572 52.8716004,261.447246 52.8716004,261.663444 C54.7523173,263.089127 57.7202597,263.856018 61.3776624,263.856018 C63.6214677,265.07978 65.1288969,266.915424 65.6510916,269.517958 C65.738804,269.958513 65.8713925,270.417424 66.1018925,270.79475 C67.4298173,272.973048 67.2176757,275.404255 66.9871757,277.721246 C66.856627,279.032711 66.5200562,280.338057 66.6057288,281.737226 C66.9810562,282.088038 67.3971801,282.475562 67.8459412,282.895721 C69.6267066,282.820255 71.1626934,283.778869 72.7435562,284.49885 C73.2208748,284.717087 73.4554544,285.471741 73.8022243,285.981642 C74.6997465,287.303305 75.8318482,288.494434 76.0582686,290.183226 C76.1194633,290.633978 76.341804,291.070453 76.3560827,291.519166 C76.3968792,292.818394 76.3703615,294.117622 76.3703615,295.376057 C74.4835252,298.408949 70.8730385,300.109978 67.5726049,299.549087 C67.4930518,299.53481 67.3910606,299.577642 67.3319058,299.542968 C64.908596,298.105048 62.0916004,297.299404 60.0782951,295.219008 C59.0481845,294.154335 58.1078261,292.969325 57.3000562,291.727206 C55.8028261,289.428572 53.5202642,288.673919 51.0235208,288.323107 C50.0627642,288.190533 49.0244942,288.486275 48.0963748,288.265998 C45.558835,287.664315 43.7066757,287.517463 43.0620916,284.396869 C42.8336314,283.293444 42.4399456,282.214493 42.0279013,281.162057 C41.7525252,280.466552 41.3078438,279.836315 41.0161491,279.312137 C40.3695252,278.840988 39.8697686,278.273978 39.2496624,278.072057 C38.3031845,277.764077 37.2628748,277.513206 36.2857996,277.582552 C33.7197022,277.766117 31.3290296,276.897246 28.8628836,276.523998 C28.0102376,276.393463 27.106596,275.89376 26.4518128,275.312473 C23.9550695,273.095424 21.9254456,270.450057 20.0957243,267.684354 C18.2966004,264.961483 17.3603217,261.816414 16.1609058,258.805958 C15.7978173,257.896295 15.7121447,256.78879 15.1246757,256.076968 C14.3148659,255.093879 14.867658,253.972097 14.3984987,252.931899 C13.8701845,251.769325 13.4234633,250.567998 12.7605208,249.454374 C12.0261845,248.220414 11.340804,246.957899 10.5983084,245.642354 C8.42793673,248.997503 8.41773761,249.537998 10.280096,252.891107 C10.280096,254.351463 10.5921889,255.981107 10.1903438,257.40883 C9.8088969,258.765166 9.86397212,260.060315 9.80073761,261.388097 C9.77014027,262.008137 10.0312376,262.587384 10.1842243,263.166632 C10.4555208,264.184394 11.1225429,265.204196 10.7798527,266.364731 C10.7125385,266.589087 10.7472155,266.852196 10.7737332,267.094909 C11.0185119,269.263008 10.8736845,271.182275 10.1311889,273.026077 C9.6314323,274.262077 9.11535708,275.475642 9.30914027,276.838097 C9.52740133,278.386156 8.50748982,279.622156 8.27087035,281.070275 C8.10768451,282.0758 7.4059854,282.983424 7.04697655,283.972632 C6.52070221,285.42075 5.3845208,286.45279 4.08515354,286.750572 C2.34110487,287.148295 1.19676416,288.180335 -0.000611946903,289.279681 L-0.000611946903,291.235661 C0.64805177,291.639503 1.27223761,292.094335 1.9535385,292.42475 C2.35538363,292.618513 3.04280398,292.851028 3.27330398,292.663384 C4.3829677,291.75984 5.74760929,292.536929 6.92254735,291.980117 C7.4059854,291.749642 8.1770385,292.102493 8.81346327,292.216711 C11.7283704,292.73885 14.5984013,293.642394 16.5443925,295.892077 C18.520981,298.176434 20.4118969,300.625998 21.1788704,303.732315 C21.3257376,304.3238 21.5256403,304.915285 21.5317597,305.525127 C21.5541978,307.968572 21.539919,310.409978 21.539919,312.937048 C20.9769279,313.422473 20.3670208,313.946651 19.6122863,314.595246 C17.9457509,314.801246 15.9936403,315.041919 13.7620739,315.315226 C13.5948084,315.627285 13.3153527,316.145345 12.9461447,316.830651 C14.3434235,317.825978 15.593835,318.715246 16.6810606,319.488255 C18.9615827,320.08382 20.5546845,318.69485 22.4863969,318.168632 C23.4512332,318.456216 24.571096,318.700968 25.6216049,319.121127 C27.9286447,320.045067 30.2254854,321.001642 32.4631712,322.078552 C33.0261624,322.34778 33.3749721,323.098354 33.7706978,323.663325 C34.1195075,324.163028 34.3928438,324.711681 34.7579721,325.33784 C34.7579721,326.512651 34.7334942,327.815958 34.7640916,329.117226 C34.8273261,331.913523 34.0746314,334.644552 34.1909013,337.467364 C34.2378173,338.589147 33.8012951,340.135166 32.4876491,340.555325 C31.2046004,340.967325 31.3779854,342.07279 30.6660872,342.802968 C31.912419,343.439325 32.8079013,342.666315 33.6605473,342.356295 C34.3969235,342.089107 35.0680252,341.925939 35.6514146,342.293067 C36.4347066,342.786651 37.2363571,342.652038 37.9686535,342.507226 C40.0655916,342.091147 40.0431535,342.080949 41.7810827,342.468473 C42.5541757,342.64184 43.3823438,342.568414 44.2655872,342.611246 C46.0810296,343.710592 48.012742,344.789543 49.8506226,346.011265 C51.8537288,347.343127 53.487627,349.070671 54.801273,351.093958 C55.7640695,352.574711 56.7656226,354.026909 57.7365783,355.501543 C58.6198217,356.841562 59.4826668,358.195859 60.4148659,359.63378 C61.2287553,359.951958 62.1323969,360.337444 63.0564367,360.655622 C64.1151049,361.018671 65.1064588,360.930968 66.2120429,360.814711 C67.686835,360.657661 69.1289898,360.51285 70.6649765,360.97584 C72.0336978,361.389879 73.5492863,361.442909 74.9282066,361.928335 C77.7798792,362.935899 80.5764765,364.080117 83.1446137,365.7118 C83.3934721,365.870889 83.6627288,365.999384 84.0237774,366.195186 C84.3603482,366.721404 84.8029898,367.345523 85.1783173,368.006354 C86.2573836,369.911345 87.5302332,374.176156 87.6199854,376.274909 C87.6648615,377.284513 88.1564588,378.031008 88.9621889,378.881523 C89.5884146,378.63881 90.3105119,378.424651 90.9714146,378.090156 C93.064273,377.031602 95.0836978,375.815998 97.2275518,374.883899 C98.539158,374.31281 99.8997199,373.666255 101.454065,373.841661 C102.214919,373.929364 102.981892,373.603028 103.712149,373.478612 C104.885047,373.276691 106.245609,372.964632 107.438906,373.800869 C107.716322,373.992592 108.228317,373.884493 108.628123,373.857978 C110.627149,373.723364 112.495627,374.059899 114.200919,375.1878 C114.494654,375.383602 114.953614,375.332612 114.857742,375.316295 C117.315729,377.162137 119.435105,378.753028 121.383136,380.217463 L124.977304,380.217463 C126.337866,379.375107 127.841215,378.985543 129.103866,378.147265 C130.709207,377.080552 132.247233,375.917978 133.875012,374.890018 C134.827609,374.290374 135.85772,373.603028 136.922508,373.454137 C137.92814,373.311364 138.899096,373.02378 139.89249,372.909562 C142.909388,372.56283 145.930366,372.195701 148.981941,372.391503 C150.026331,372.45881 151.282862,372.122275 152.064114,372.595463 C153.02487,373.17879 154.032543,372.577107 155.007578,373.274651 C155.754154,373.809028 157.075959,373.38683 158.179503,373.811067 C160.421269,374.669741 162.671193,375.420315 164.20514,377.260038 L167.166963,377.260038 C168.12568,375.616117 169.304698,374.3638 171.175215,373.84982 C172.703043,373.429661 174.200273,372.893246 175.703623,372.391503 C175.989198,372.295642 176.246215,372.116156 176.643981,371.910156 L177.551702,371.910156 C179.18968,371.000493 180.523724,370.258077 181.95772,369.462632 C185.833384,369.462632 189.829397,369.348414 193.813171,369.513622 C195.689808,369.591127 197.637839,369.892988 199.2391,371.143265 C199.461441,371.316632 199.804131,371.361503 200.099906,371.414533 C201.984702,371.755147 203.459494,373.184909 205.391207,373.411305 C205.517676,373.425582 205.638025,373.617305 205.735937,373.7458 C206.62326,374.900216 208.038897,375.34077 209.093485,376.21576 C210.133795,377.076473 211.261817,377.700592 212.436755,378.239048 C214.22364,379.056929 215.588282,380.49077 216.263463,382.085741 C216.912127,383.613404 218.276769,384.417008 218.945831,385.859008 C219.521061,387.097048 220.700078,388.045463 221.587401,389.136651 C222.692985,390.501147 223.639463,392.010453 224.543105,393.52384 C226.334069,396.517978 228.316777,399.39382 229.793609,402.5858 C230.415755,403.931939 230.689092,405.318869 231.064419,406.701721 C231.423428,408.025424 231.621291,409.400117 232.098609,410.674869 C232.300552,411.217404 233.028769,411.564137 233.518326,412.000612 L234.007884,412.000612 C234.640229,411.468275 235.272574,410.937978 235.966114,410.356691 C235.966114,406.232612 236.051786,402.088137 235.939596,397.94978 C235.853923,394.851622 236.690251,391.979859 237.604092,389.097899 C238.499574,386.281206 240.170189,383.772493 241.130946,381.035345 C242.265087,377.800533 243.72764,374.735008 245.355419,371.793899 C246.7221,369.328018 248.096941,366.74384 250.236715,364.767463 C250.738512,364.304473 251.3321,363.749701 251.954246,363.639562 C253.794167,363.315265 255.317915,362.279147 256.98853,361.59384 C258.865167,360.826949 260.701008,360.168156 262.759189,360.14776 C263.67099,360.139602 264.674583,359.527721 265.470114,359.758196 C266.720525,360.121246 268.042331,360.043741 269.262145,360.627067 C270.614547,361.273622 272.105658,361.630552 273.529454,362.132295 C276.330131,363.115384 277.574423,365.289602 278.07622,368.049186 C278.267963,369.097543 278.527021,370.137741 279.310313,371.049444 C280.470972,370.476315 281.617353,370.111226 282.078353,368.705939 C282.241538,368.206236 282.975875,367.861543 283.498069,367.51685 C284.517981,366.84378 285.601127,366.268612 286.5986,365.569028 C287.667468,364.818453 289.062707,365.440533 290.133614,364.610414 C290.437547,364.37382 291.108649,364.4758 291.567609,364.592057 C293.686985,365.128473 295.863477,365.293681 297.999171,365.650612 C299.418888,365.889246 300.810047,365.934117 302.215485,366.050374 C303.539331,366.160513 304.8081,366.564354 306.172742,366.594949 C307.3436,366.619424 308.520578,367.157879 309.664919,367.553562 C310.156516,367.72285 310.609357,368.067543 311.019362,368.406117 C312.180021,369.360651 313.322322,370.343741 314.452384,371.337028 C315.592645,372.336434 316.696189,372.660731 318.236255,371.955028 C320.422946,370.953582 322.756503,370.276434 325.030906,369.464671 C325.66937,369.236236 326.338432,369.073067 326.950379,368.789562 C329.141149,367.777919 331.305401,366.707127 333.498211,365.699562 C334.414092,365.281444 335.462561,365.703642 336.447795,365.120315 C337.349397,364.585939 338.505977,364.506394 339.638078,364.549226 C341.751335,364.626731 343.799317,364.485998 345.879937,363.706869 C347.642344,363.048077 349.731123,363.725226 351.232432,364.694038 C352.915286,365.781147 354.557344,366.839701 356.305472,367.46382 C358.690025,366.837661 360.095463,365.071364 361.623291,363.490671 C363.216392,361.844711 364.929844,360.400671 367.077777,359.523642 C367.985499,359.152434 368.834065,358.495681 369.766264,358.365147 C371.781609,358.083681 373.136052,356.719186 374.4293,355.497463 C376.048919,353.96776 377.911277,353.496612 379.924583,353.359958 C381.950127,353.221265 383.99403,353.329364 385.791114,353.329364 C387.145556,354.181919 388.318454,354.922295 389.660658,355.768731 L392.828503,355.768731 C394.005481,354.922295 394.4726,353.690374 394.566432,352.346275 C394.723499,350.076196 395.463954,347.926453 396.732724,346.174434 C398.015773,344.402018 398.246273,342.38077 399.380415,339.982196 C399.959724,339.402949 401.026552,338.405582 402.009746,337.33275 C402.693087,336.588295 403.4621,335.823444 403.835388,334.917859 C404.302508,333.785879 405.42849,333.353483 405.873171,332.409147 C407.757968,332.18479 409.45714,331.795226 411.099198,330.956949 C411.348056,328.558374 411.909008,326.31481 412.280255,324.030453 C412.582149,322.172374 413.626538,320.487661 414.944264,319.035463 C415.727556,318.172711 416.647516,317.293642 417.043242,316.247325 C417.657229,314.62584 418.9158,313.461226 419.652176,311.951919 C419.799043,311.650057 420.243724,311.470572 420.580295,311.287008 C421.44722,310.819939 422.330463,310.383463 423.40137,309.83277 C426.295879,310.250889 427.595246,308.037919 428.843618,305.824949 C430.587667,302.734949 431.862556,299.424671 433.294512,296.18578 C433.873822,294.872275 434.685671,293.571008 435.693344,292.561404 C436.719375,291.535483 437.174255,289.936434 438.73064,289.436731 C439.840304,287.666354 442.061671,286.887226 442.853123,284.831305 C444.741999,283.411741 446.249428,281.512869 448.338207,280.354374 C450.445344,279.185681 452.711587,278.494255 455.159375,278.52281 C455.893711,278.530968 456.628047,278.52281 457.539848,278.52281 C457.766269,278.143444 458.060003,277.649859 458.355777,277.156275 C458.496525,277.229701 458.639313,277.303127 458.780061,277.378592 C458.55976,276.093642 458.341499,274.808691 458.074282,273.250434 C456.387348,271.845147 455.240968,269.789226 454.667777,267.39677 C454.580065,267.031681 454.272052,266.648236 454.337326,266.330057 C454.624941,264.934968 454.190459,263.53376 453.71314,262.418097 C453.109353,261.01281 453.572392,259.933859 454.119065,259.00176 C455.267485,257.049859 455.298083,254.771622 456.25476,252.789127 C456.350631,252.591285 456.25068,252.305741 456.271078,252.063028 C456.334313,251.27778 456.275158,250.449701 456.511777,249.717483 C456.923822,248.432533 457.51945,247.204691 458.229308,245.493463 C457.958012,243.258057 458.180353,240.614731 460.183459,238.432354 L460.183459,234.520394 Z" id="Fill-1" fill="#34251F" mask="url(#mask-2)"></path>
            </g>
            <path d="M213.236043,233.868856 C211.602461,233.548751 209.856423,233.20786 208.787098,233 C206.747094,233.523808 206.094056,234.660803 205.517962,235.895492 C205.859278,238.479194 204.146779,241.075368 205.583068,243.444974 C207.881525,245.920589 210.548919,246.178335 213.36231,245.920589 C213.887108,245.373917 214.445445,244.793987 214.995891,244.220293 C214.995891,242.21652 214.984054,240.229377 214.999837,238.240155 C215.009702,237.184225 214.56974,236.282112 214.155425,235.37792 C213.934458,234.891528 213.603007,234.463336 213.236043,233.868856" id="Fill-4" fill="#34251F"></path>
            <path d="M160.152418,263.051599 C159.69494,262.103108 160.407663,260.901963 159.708684,259.771229 C159.227645,258.988413 159.282621,257.816261 159.168742,256.809783 C159.045047,255.716326 159.47111,254.537961 158.656289,253.595683 C159.834343,252.003129 158.742679,250.584534 158.581679,249.306764 C157.886626,248.952633 157.385953,248.621282 156.840121,248.43904 C156.203972,248.227804 155.528554,248.144966 154.835465,248 C152.461685,250.087509 152.828846,252.601631 153.27847,255.049483 C153.529788,256.414233 153.665264,257.720997 153.264726,259.0464 C152.656064,261.057283 152.512734,263.16343 152.106306,265.215733 C151.998317,265.768674 151.925671,266.443801 152.127903,266.92633 C152.440088,267.665656 152.516661,268.817099 153.439471,268.92893 C154.531134,269.06147 155.267419,269.891918 156.260911,270.148714 C158.008359,270.598109 159.745989,271.712275 161.348143,270.330957 C161.617132,269.759377 161.809548,269.351402 162,268.945498 C161.524851,267.98251 161.055593,267.031948 160.570627,266.048251 C160.507798,265.070767 160.647201,264.078786 160.152418,263.051599" id="Fill-6" fill="#34251F"></path>
            <path d="M117.166208,238.726193 C117.347906,237.37661 117.531623,236.027028 117.699189,234.785252 C117.400397,234.489781 117.240906,234.188321 117.05719,234.17235 C113.394967,233.844936 109.734763,234.104471 105.977653,234.000657 C105.630408,234.819191 105.151937,235.482004 105.085315,236.180752 C104.820843,239.037635 105.162031,241.836622 106.238087,244.527802 C106.73069,245.759595 107.186954,247.00736 107.701765,248.360936 C108.11967,248.772199 108.632462,249.279291 109.361273,250 C111.646629,248.882003 113.62108,247.304827 116.092172,246.805721 C116.604964,246.29863 117.117756,245.793534 117.521529,245.392253 C117.681019,244.382063 117.820321,243.493654 118,242.357689 C116.938077,241.539155 118.280622,239.834209 117.166208,238.726193" id="Fill-8" fill="#34251F"></path>
        </g>
    </g>
</svg>