<?xml version="1.0" encoding="UTF-8"?>
<svg width="512px" height="412px" viewBox="0 0 512 412" version="1.1" xmlns="http://www.w3.org/2000/svg" xmlns:xlink="http://www.w3.org/1999/xlink">
    <!-- Generator: Sketch 53.2 (72643) - https://sketchapp.com -->
    <title>Group 26 Copy</title>
    <desc>Created with Sketch.</desc>
    <g id="Page-1" stroke="none" stroke-width="1" fill="none" fill-rule="evenodd">
        <g id="Artboard-Copy-10" fill="#34251F">
            <g id="Group-26-Copy">
                <path d="M451.112325,106.28317 C454.295457,106.16204 456.939599,106.06163 459.550402,105.962017 C466.488995,114.630752 465.344337,117.710791 453.352424,120.809158 C451.063109,125.718094 448.53883,131.130675 446.013758,136.545646 C448.286402,140.528578 450.57413,144.537011 452.848362,148.522334 C447.06554,153.965994 439.737987,156.280207 439.959457,166.710899 C441.048548,169.343077 442.998911,174.055974 445.167568,179.296423 C442.784585,183.469816 440.235699,187.934876 437.33754,193.011162 C438.446477,196.49045 439.757832,200.603278 441.049342,204.656338 C436.454043,207.55787 432.265168,210.202798 427.086427,213.472501 C428.208064,219.465228 429.317001,225.387031 430.568821,232.073065 C428.542254,236.613831 426.116406,242.047928 423.303184,248.350651 C426.276753,249.693437 429.249528,251.036222 432.494576,252.501731 C436.517547,247.276423 439.944375,242.825708 444.160238,237.350172 C446.033602,237.27845 449.494564,237.146961 453.710427,236.986783 C455.665553,233.800756 457.800871,230.319874 459.101906,228.200106 C468.498099,227.633506 475.899475,228.622466 481.934725,222.662412 C483.446117,221.169808 486.859451,221.612887 489.415482,221.466257 C495.136387,221.136338 500.868406,220.995286 507.281503,220.751433 C508.616672,223.245746 510.01852,225.864377 511.715661,229.03606 C507.286266,234.847889 500.404827,239.254775 500.989063,246.873986 C501.470105,253.154396 504.209503,259.252315 506.40515,267.056408 C503.771327,271.189955 498.564802,273.321677 491.779413,274.792764 C490.425193,276.400121 488.386719,278.818729 486.151382,281.471626 C486.310936,285.707974 486.484778,290.306915 486.711804,296.329924 C484.022415,297.348369 480.066123,300.372624 478.1491,299.3231 C466.630291,293.015595 459.082061,300.72406 450.856722,306.49445 C450.499513,306.745475 450.248672,307.160663 449.881937,307.572663 C449.948616,309.330636 450.017677,311.159533 450.097057,313.261769 C447.953007,315.371178 445.708939,317.579402 442.945727,320.298443 C441.221596,320.364586 438.595711,320.464199 435.998402,320.563015 C433.74719,325.229692 431.543606,329.799147 429.293981,334.46423 C424.568499,334.643533 420.224833,334.80929 417.036939,334.930419 C412.816313,339.742133 409.287878,343.764911 405.553851,348.021978 C393.870725,341.796555 382.619426,338.693406 370.834694,339.811464 C367.729354,342.241228 364.788331,344.543487 361.227351,347.329468 C354.014899,340.03141 347.118378,334.005212 337.314173,335.045174 C327.74017,327.935185 320.946843,338.286187 312.653237,339.465607 C307.722161,335.902644 302.877609,332.401042 297.96479,328.850829 C294.435562,328.985506 290.934911,329.11859 286.765882,329.277174 C284.405919,332.411402 281.688747,336.019789 278.011872,340.902427 C277.560201,365.985019 290.348294,386.645584 307.191109,405.619897 C307.234768,406.784176 307.320499,408.169994 307.318117,409.556609 C307.318117,409.959046 307.067277,410.361483 306.617193,411.690721 C305.317745,411.740129 303.509472,412.297166 302.041739,411.784756 C292.695556,408.522226 285.943506,401.503882 280.263085,393.606551 C275.833689,387.448864 272.641826,380.336485 268.710936,373.77158 C265.413497,368.265762 261.111903,363.279526 258.593975,357.436617 C256.016511,351.454249 253.063581,346.001824 249.698669,340.446597 C245.270068,333.135789 239.579327,328.935301 232.241454,325.471154 C227.710452,327.888965 222.969888,330.418342 215.745528,334.272973 C215.694725,334.275363 212.725919,334.388524 209.755525,334.505669 C208.128238,332.936562 206.501745,331.362675 204.875252,329.78799 C193.41439,327.766241 187.241813,331.749971 175.286415,341.696942 C172.187426,341.814884 169.08923,341.932826 166.270452,342.039611 C161.802161,339.220957 157.52835,336.525027 153.709385,334.115982 C142.200896,335.150365 134.073193,345.949228 122.259091,343.357692 C119.835624,333.862566 111.794446,334.457855 105.078117,333.382032 C97.1829978,332.117344 91.8542288,337.925189 85.5752831,344.314775 C83.6177761,337.513189 83.1367343,331.585808 80.3322443,327.317584 C77.6111033,323.176864 72.503804,320.741522 68.1664893,317.338737 C63.6132614,319.786829 59.0997234,324.593762 54.0852986,316.948253 C53.9384459,313.05298 53.7511095,308.083479 53.5812366,303.593715 C44.4525544,295.111456 42.8268552,294.390257 32.1645544,294.087433 C31.9819808,289.246234 31.7946443,284.297452 31.6057203,279.283325 C28.582142,276.859139 26.0118226,274.414234 23.0922319,272.57657 C20.6640025,271.048903 17.8245854,270.23606 14.7390909,268.92515 C13.7039777,256.726922 17.3729141,241.90847 -0.00015875969,236.998737 C0.93176062,227.509986 1.81922729,218.47069 2.82973271,208.182644 C5.59612031,210.136655 9.31506605,211.511317 9.36666295,213.011889 C9.61194667,220.183239 13.6031653,223.240168 19.4447281,224.178125 C22.1611064,223.535023 25.1521389,222.826574 28.6146878,222.006559 C28.9576087,226.156841 29.2140056,229.260787 29.499773,232.726528 C34.7952025,234.275711 39.5127467,233.162435 43.4888831,229.032872 C45.592449,233.154466 47.1371808,236.180315 48.9954629,239.819781 C58.5400955,241.977003 59.9752831,254.482837 69.0087095,259.116044 C76.2910164,258.453816 76.2910164,258.453816 78.0318164,249.791456 C76.1433699,248.797715 73.933435,247.914744 72.0354629,246.555224 C70.2263963,245.259456 68.742787,243.466419 66.9892862,241.769808 C71.9965668,236.839356 68.6427684,232.302574 64.418173,226.723441 C62.909956,226.079541 59.4934474,224.622002 55.8022847,223.04652 C55.6363808,218.656369 55.4649203,214.110025 55.2418629,208.189019 C50.4552583,205.080292 45.2288893,201.685475 38.9745513,197.622056 C38.8808831,195.155634 38.7284738,191.117715 38.5951157,187.569096 C36.155773,185.208663 34.2038226,183.319201 31.5938133,180.793808 C30.6158536,180.741212 28.9504645,180.652756 25.7911467,180.484609 C24.5345637,178.788795 22.6302412,176.219572 20.2940924,173.067812 C25.746694,166.659897 30.5825141,160.793878 28.4344955,151.019835 C26.2571064,148.90963 23.1454164,145.894141 19.9948304,142.841197 C21.1783839,138.45264 22.1857141,134.72153 23.170818,131.068516 C20.7775157,127.638636 18.6033017,124.52194 16.0671157,120.885661 C18.133373,117.921971 19.8463901,115.465112 21.9483684,112.449622 C21.8380304,109.509042 21.6999095,105.856029 21.5673451,102.350443 C26.0022971,97.5953091 30.2943653,92.9931814 34.5856397,88.3910538 C34.1498443,88.0914174 33.714049,87.7909841 33.2790474,87.4913478 C34.9960335,83.6024503 36.7130195,79.7127559 39.3230288,73.8029068 C39.3095343,69.1641215 37.5338071,61.8214368 42.3751839,55.4438043 C46.5624707,53.8643381 49.8845172,55.4047559 51.9523622,59.4873014 C52.8985699,61.3560441 52.4937327,64.1213052 53.6756986,65.6728797 C55.8602319,68.5385509 58.7615653,70.8097308 61.3644304,73.3279513 C66.8932366,75.8844232 69.1587374,71.1962298 72.1283374,68.0723613 C76.402942,67.7456302 80.9863343,66.124725 83.8892552,71.1794948 C82.4548614,75.4732201 80.0258381,79.7573826 79.8496149,84.1475335 C79.6845048,88.2364542 81.916666,92.4385354 83.4034505,97.6805779 C86.946173,97.714048 91.1461606,97.7530963 95.0302164,97.789754 C96.5987622,99.4337694 97.8156552,100.709615 98.1736583,101.084957 C97.4767033,107.623564 96.8837358,113.184369 96.2891808,118.75633 C99.7691932,120.668106 102.325224,122.122458 104.924914,123.484369 C107.138818,124.643866 109.403525,125.697375 111.470576,126.711835 C113.035153,130.653328 114.442558,134.197963 115.931723,137.947402 C119.549063,137.809537 122.521044,137.697174 125.937553,137.567278 C126.713094,136.69387 127.915699,135.339131 129.220703,133.869638 C128.911916,125.694187 128.599159,117.40717 128.269733,108.679464 C135.70683,102.96406 138.138235,94.0387211 139.93222,86.8203536 C138.837571,79.9374832 137.964393,74.4484 136.811004,67.2013439 C142.006415,68.5337694 145.498334,69.428694 149.020418,70.3323845 C151.804269,68.0237501 154.725447,65.6019551 158.204666,62.7179551 C159.10404,53.3168642 163.935891,45.6554174 173.023296,40.8819551 C174.064759,34.1959203 175.136387,27.3146437 176.29057,19.9042221 C179.853137,19.7687482 183.725286,19.6213207 188.26502,19.4483923 C190.243165,14.5530035 192.15622,9.81858956 193.930359,5.42525106 C204.260058,3.62344836 213.935668,1.93480619 222.807159,0.386419342 C233.328958,9.49823366 244.515165,12.3224658 257.240548,10.7469841 C257.445348,16.1731118 257.633478,21.1426128 257.847804,26.8309222 C262.531215,28.9076573 267.07333,30.9222337 271.615444,32.9360132 C271.805956,37.9891892 271.97821,42.5466901 272.195711,48.3011427 C279.505007,53.1479203 287.207233,58.2552859 294.745937,63.2534754 C293.739401,71.0073632 290.268914,77.0439203 294.714979,84.4567327 C298.895916,91.4288565 307.13475,89.8581563 311.738781,97.2478584 C311.414117,99.3883458 311.118824,102.839742 310.33852,106.165228 C308.985094,111.93004 308.761243,117.395216 311.317274,123.03093 C312.540517,125.728454 313.826471,130.259657 312.579413,131.982566 C307.400672,139.137181 311.77212,144.399147 314.490086,149.901777 C322.862278,152.494907 323.129789,144.637421 326.413733,139.5444 C326.2899,136.26912 325.743767,132.106884 326.092244,128.030713 C326.416908,124.237444 327.695717,120.536617 328.57604,116.701112 C331.656771,116.583967 334.24773,116.48515 337.730123,116.352864 C340.394111,112.361166 343.257342,108.072222 346.41666,103.339402 C346.276951,99.6513246 346.125336,95.6261563 345.99674,92.2154019 C351.639854,84.0941408 359.70564,89.5290344 366.104449,86.8323072 C368.021472,81.3368487 369.980567,75.7242453 371.822973,70.4431544 C377.291451,70.2351621 381.699413,70.0670151 387.410793,69.8502569 C388.974576,64.5213516 390.624883,58.8983884 392.573658,52.2569803 C398.096114,53.2443458 402.939872,54.1105818 409.512523,55.2852201 C414.334849,51.0520596 420.118464,45.9749764 426.760176,40.1440209 C428.563686,40.8078429 431.268158,41.8023807 434.160759,42.8662491 C434.337776,47.5432859 434.490185,51.5804077 434.627513,55.2246553 C440.745317,60.0355721 442.069373,69.327487 451.941051,69.831928 C451.083748,77.0997037 451.768002,84.2232395 449.20324,89.6724774 C446.213795,96.0230151 448.316567,100.340648 451.112325,106.28317 Z M328.585705,243.786982 L343.673529,243.786982 C343.711057,243.786982 343.745458,243.765363 343.761095,243.730132 C343.778295,243.695702 343.773604,243.654065 343.750149,243.624439 L317.020041,209.676822 L343.750149,175.689171 C343.773604,175.659545 343.778295,175.617908 343.761095,175.583477 C343.745458,175.548246 343.711057,175.526627 343.673529,175.526627 L328.585705,175.526627 C328.555213,175.526627 328.526286,175.541841 328.507522,175.566663 L309.370581,201.367075 L309.370581,175.626716 C309.370581,175.571467 309.326798,175.526627 309.272852,175.526627 L297.545348,175.526627 C297.491402,175.526627 297.447619,175.571467 297.447619,175.626716 L297.447619,243.686894 C297.447619,243.742143 297.491402,243.786982 297.545348,243.786982 L309.272852,243.786982 C309.326798,243.786982 309.370581,243.742143 309.370581,243.686894 L309.349472,220.74661 L310.430747,219.329357 L328.507522,243.746947 C328.526286,243.771769 328.555213,243.786982 328.585705,243.786982 Z M255.790206,204.814123 L248.29585,204.814123 L248.29585,187.737424 L255.790206,187.737424 C259.207354,187.737424 265.590518,190.259654 265.590518,196.336227 C265.590518,202.587354 260.528249,204.814123 255.790206,204.814123 Z M264.449147,243.786982 L276.056307,243.786982 C276.088033,243.786982 276.118985,243.770167 276.136783,243.742943 C276.153807,243.71652 276.15845,243.681289 276.146843,243.650862 L265.09141,214.122353 C270.973145,210.932333 277.942857,205.284138 277.942857,196.445123 C277.942857,181.662452 263.514384,175.526627 255.790206,175.526627 L236.591964,175.526627 C236.539345,175.526627 236.495238,175.571467 236.495238,175.626716 L236.495238,243.686894 C236.495238,243.742143 236.539345,243.786982 236.591964,243.786982 L248.199124,243.786982 C248.252517,243.786982 248.29585,243.742143 248.29585,243.686894 L248.29585,216.469228 C248.872339,216.475634 251.865439,216.510064 253.890501,216.510064 C255.084491,216.510064 255.524015,216.498854 255.695801,216.486844 C255.713599,216.701434 255.766218,217.112997 255.819611,217.213887 L264.357838,243.718121 C264.370992,243.759758 264.408135,243.786982 264.449147,243.786982 Z M141.19973,204.814123 L133.705374,204.814123 L133.705374,187.737424 L141.19973,187.737424 C144.616878,187.737424 151.000042,190.259654 151.000042,196.336227 C151.000042,202.041271 147.794144,204.814123 141.19973,204.814123 Z M122.001488,243.786982 L133.608648,243.786982 C133.662041,243.786982 133.705374,243.742143 133.705374,243.686894 L133.705374,217.269135 L141.19973,217.269135 C147.719085,217.269135 163.352381,211.276637 163.352381,196.445123 C163.352381,181.662452 148.923908,175.526627 141.19973,175.526627 L122.001488,175.526627 C121.948869,175.526627 121.904762,175.571467 121.904762,175.626716 L121.904762,243.686894 C121.904762,243.742143 121.948869,243.786982 122.001488,243.786982 Z M203.094336,217.96415 L189.439121,217.96415 L196.266323,190.62878 L203.094336,217.96415 Z M209.622838,243.786982 L221.765125,243.786982 C221.796695,243.786982 221.825836,243.77257 221.845264,243.748548 C221.863882,243.724527 221.871167,243.693299 221.863882,243.662873 L204.864681,175.602694 C204.853348,175.557855 204.812874,175.526627 204.765924,175.526627 L187.766723,175.526627 C187.720582,175.526627 187.680108,175.557855 187.668775,175.602694 L170.669575,243.662873 C170.662289,243.693299 170.668765,243.724527 170.688193,243.748548 C170.70762,243.77257 170.736762,243.786982 170.767522,243.786982 L182.909809,243.786982 C182.956759,243.786982 182.997233,243.755755 183.008566,243.710915 L187.18956,226.972115 L205.343897,226.972115 L209.524891,243.710915 C209.536223,243.755755 209.576698,243.786982 209.622838,243.786982 Z M376.129977,246.223235 L376.448384,246.224852 C393.558616,246.224852 397.409524,231.675496 397.409524,226.578773 C397.409524,216.265633 388.077748,210.128862 378.949025,205.485846 C370.420773,201.148537 366.362861,198.356743 366.362861,194.228899 C366.362861,190.300815 369.352569,187.860017 374.165019,187.860017 C381.941104,187.860017 389.404312,193.444414 389.479371,193.501835 C389.495963,193.513966 389.516505,193.521245 389.537838,193.521245 C389.544949,193.521245 389.552849,193.520436 389.56154,193.51801 C389.589984,193.510731 389.613687,193.491321 389.626328,193.464633 L394.614969,182.941218 C394.635511,182.897546 394.62287,182.845786 394.585735,182.816671 C394.492504,182.743884 385.105422,175.526627 371.794743,175.526627 C360.388185,175.526627 354.313958,186.289431 354.313958,194.058253 C354.313958,199.152549 355.163307,204.992511 361.465081,209.677581 C365.270163,212.505769 367.862455,213.877404 370.863224,215.466591 C372.554021,216.361065 374.301705,217.286272 376.485519,218.578649 C383.036961,222.454973 384.820199,225.077739 383.552891,228.973473 C382.069889,233.526718 377.385433,234.481848 373.716246,234.481848 C372.901662,234.481848 372.038881,234.435749 371.152398,234.344361 C365.564868,233.765298 356.910201,229.762001 356.82329,229.721564 C356.810649,229.715902 356.796427,229.712667 356.782996,229.712667 C356.768774,229.712667 356.755343,229.715902 356.741911,229.721564 C356.716628,229.732886 356.696086,229.75634 356.688975,229.783837 L353.528607,240.297546 C353.514385,240.342836 353.532557,240.391361 353.572852,240.414815 C353.667663,240.471427 363.225406,246.091409 376.129977,246.223235 Z" id="Combined-Shape"></path>
            </g>
        </g>
    </g>
</svg>